<svg width="10" height="10" viewBox="0 0 10 10" fill="none" xmlns="http://www.w3.org/2000/svg">
<path d="M8.88889 0H1.11111C0.5 0 0 0.5 0 1.11111V8.88889C0 9.5 0.5 10 1.11111 10H8.88889C9.5 10 10 9.5 10 8.88889V1.11111C10 0.5 9.5 0 8.88889 0ZM4.28333 7.38333C4.23194 7.43484 4.17089 7.4757 4.10368 7.50357C4.03647 7.53145 3.96443 7.5458 3.89167 7.5458C3.81891 7.5458 3.74686 7.53145 3.67965 7.50357C3.61245 7.4757 3.5514 7.43484 3.5 7.38333L1.50556 5.38889C1.45412 5.33745 1.41332 5.27639 1.38549 5.20919C1.35765 5.14199 1.34332 5.06996 1.34332 4.99722C1.34332 4.92448 1.35765 4.85246 1.38549 4.78525C1.41332 4.71805 1.45412 4.65699 1.50556 4.60556C1.55699 4.55412 1.61805 4.51332 1.68525 4.48549C1.75246 4.45765 1.82448 4.44332 1.89722 4.44332C1.96996 4.44332 2.04199 4.45765 2.10919 4.48549C2.17639 4.51332 2.23745 4.55412 2.28889 4.60556L3.88889 6.20556L7.71111 2.38333C7.81499 2.27946 7.95587 2.2211 8.10278 2.2211C8.24968 2.2211 8.39057 2.27946 8.49445 2.38333C8.59832 2.48721 8.65668 2.6281 8.65668 2.775C8.65668 2.9219 8.59832 3.06279 8.49445 3.16667L4.28333 7.38333Z" fill="url(#paint0_linear)"/>
<defs>
<linearGradient id="paint0_linear" x1="10" y1="-2.92682" x2="-8.6293" y2="-1.59811" gradientUnits="userSpaceOnUse">
<stop stop-color="#FF416C"/>
<stop offset="1" stop-color="#FF4B2B"/>
</linearGradient>
</defs>
</svg>
