<svg width="11" height="10" viewBox="0 0 11 10" fill="none" xmlns="http://www.w3.org/2000/svg">
<path d="M9.05539 0H1.27762C0.666504 0 0.166504 0.5 0.166504 1.11111V8.88889C0.166504 9.5 0.666504 10 1.27762 10H9.05539C9.6665 10 10.1665 9.5 10.1665 8.88889V1.11111C10.1665 0.5 9.6665 0 9.05539 0ZM4.44984 7.38333C4.39844 7.43484 4.33739 7.4757 4.27018 7.50357C4.20298 7.53145 4.13093 7.5458 4.05817 7.5458C3.98541 7.5458 3.91336 7.53145 3.84616 7.50357C3.77895 7.4757 3.7179 7.43484 3.6665 7.38333L1.67206 5.38889C1.62063 5.33745 1.57983 5.27639 1.55199 5.20919C1.52415 5.14199 1.50983 5.06996 1.50983 4.99722C1.50983 4.92448 1.52415 4.85246 1.55199 4.78525C1.57983 4.71805 1.62063 4.65699 1.67206 4.60556C1.72349 4.55412 1.78456 4.51332 1.85176 4.48549C1.91896 4.45765 1.99099 4.44332 2.06373 4.44332C2.13647 4.44332 2.20849 4.45765 2.27569 4.48549C2.3429 4.51332 2.40396 4.55412 2.45539 4.60556L4.05539 6.20556L7.87761 2.38333C7.98149 2.27946 8.12238 2.2211 8.26928 2.2211C8.41618 2.2211 8.55707 2.27946 8.66095 2.38333C8.76483 2.48721 8.82318 2.6281 8.82318 2.775C8.82318 2.9219 8.76483 3.06279 8.66095 3.16667L4.44984 7.38333Z" fill="#E3E3E3"/>
</svg>
