<svg width="14" height="16" viewBox="0 0 14 16" fill="none" xmlns="http://www.w3.org/2000/svg">
<path d="M6.66504 0C2.99047 0 0 2.81973 0 6.28451C0 9.62949 5.97443 15.57 6.22852 15.8218C6.34254 15.9355 6.50216 16 6.6683 16C6.67155 16 6.67807 16 6.68133 16C6.85072 16 7.0136 15.9263 7.12436 15.8034L9.19293 13.5704C11.9423 10.3974 13.3333 7.94625 13.3333 6.28758C13.3333 2.81974 10.3429 0 6.66504 0ZM6.66504 9.1411C4.99063 9.1411 3.63548 7.86331 3.63548 6.28451C3.63548 4.7057 4.99063 3.42791 6.66504 3.42791C8.33944 3.42791 9.6946 4.7057 9.6946 6.28451C9.6946 7.86331 8.33944 9.1411 6.66504 9.1411Z" fill="#FF416C"/>
</svg>
