<svg width="27" height="30" viewBox="0 0 27 30" fill="none" xmlns="http://www.w3.org/2000/svg">
<path d="M11.8222 15.8086L17.4373 15.958V20.6221L11.8145 20.6426L11.8222 15.8086Z" fill="#FF416C"/>
<path d="M17.1041 24.8789H12.3088C11.6436 24.8789 11.0996 24.2637 11.0996 23.5049V20.6191C11.0996 20.165 11.4219 19.7988 11.8215 19.7988C12.2211 19.7988 12.5434 20.165 12.5434 20.6191V23.2383H16.8695V12.9844C16.8695 12.4834 16.5111 12.0762 16.0702 12.0762H13.3452C12.9043 12.0762 12.5459 12.4834 12.5459 12.9844C12.5459 13.4385 12.2237 13.8047 11.8241 13.8047C11.4245 13.8047 11.1022 13.4385 11.1022 12.9844C11.1022 11.5781 12.1077 10.4355 13.3452 10.4355H16.0702C17.3077 10.4355 18.3132 11.5781 18.3132 12.9844V23.5078C18.3132 24.2637 17.7718 24.8789 17.1041 24.8789Z" fill="#FDC767"/>
<path d="M11.8215 16.6289C11.4219 16.6289 11.0996 16.2627 11.0996 15.8086V15.2344C11.0996 14.7803 11.4219 14.4141 11.8215 14.4141C12.2211 14.4141 12.5434 14.7803 12.5434 15.2344V15.8057C12.5434 16.2598 12.2211 16.6289 11.8215 16.6289ZM11.8215 21.3867C11.4219 21.3867 11.0996 21.0205 11.0996 20.5664V18.6387C11.0996 18.1846 11.4219 17.8184 11.8215 17.8184C12.2211 17.8184 12.5434 18.1846 12.5434 18.6387V20.5664C12.5434 21.0205 12.2211 21.3867 11.8215 21.3867ZM16.5859 11.5693H15.1421V6.0498H14.2707V11.5693H12.827V5.44336C12.827 4.87207 13.2369 4.40625 13.7396 4.40625H15.6758C16.1785 4.40625 16.5884 4.87207 16.5884 5.44336V11.5693H16.5859Z" fill="#FDC767"/>
<path d="M14.073 7.08105H15.8004V8.25293H14.073V7.08105ZM11.7373 15.416H17.7855V16.5879H11.7373V15.416ZM11.7012 19.8604H17.6412V21.0322H11.7012V19.8604Z" fill="#FDC767"/>
<path d="M5.64148 3.94629C5.95086 3.94629 6.20094 4.23047 6.20094 4.58203C6.20094 4.93359 5.95086 5.21777 5.64148 5.21777C5.33211 5.21777 5.08203 4.93359 5.08203 4.58203C5.08203 4.23047 5.33211 3.94629 5.64148 3.94629ZM5.64148 2.77441C4.76492 2.77441 4.05078 3.58594 4.05078 4.58203C4.05078 5.57812 4.76492 6.38965 5.64148 6.38965C6.51805 6.38965 7.23219 5.57812 7.23219 4.58203C7.23219 3.58594 6.51805 2.77441 5.64148 2.77441ZM5.73172 26.5811H5.72656C5.51258 26.5781 5.34242 26.3789 5.345 26.1357L5.37078 24.0996C5.37336 23.8594 5.54609 23.666 5.7575 23.666H5.76266C5.97664 23.6689 6.1468 23.8682 6.14422 24.1113L6.11844 26.1475C6.11328 26.3877 5.94055 26.5811 5.73172 26.5811Z" fill="#FDC767"/>
<path d="M7.02617 25.1368V25.1426C7.02359 25.3858 6.84828 25.5791 6.6343 25.5762L4.8425 25.5469C4.63109 25.544 4.46094 25.3477 4.46094 25.1075V25.1016C4.46352 24.8584 4.63883 24.6651 4.85281 24.668L6.64461 24.6973C6.85602 24.7002 7.02617 24.8965 7.02617 25.1368Z" fill="#FDC767"/>
<path d="M23.3867 25.5762C23.3867 25.8163 23.4707 26.0465 23.6201 26.2163C23.7694 26.3861 23.9721 26.4814 24.1834 26.4814C24.3946 26.4814 24.5973 26.3861 24.7467 26.2163C24.8961 26.0465 24.98 25.8163 24.98 25.5762C24.98 25.3361 24.8961 25.1058 24.7467 24.936C24.5973 24.7663 24.3946 24.6709 24.1834 24.6709C23.9721 24.6709 23.7694 24.7663 23.6201 24.936C23.4707 25.1058 23.3867 25.3361 23.3867 25.5762Z" fill="#FDC767"/>
<path d="M23.3125 10.7812C23.3125 10.9421 23.3687 11.0963 23.4688 11.2101C23.5689 11.3238 23.7046 11.3877 23.8462 11.3877C23.9877 11.3877 24.1235 11.3238 24.2235 11.2101C24.3236 11.0963 24.3798 10.9421 24.3798 10.7812C24.3798 10.6204 24.3236 10.4662 24.2235 10.3524C24.1235 10.2387 23.9877 10.1748 23.8462 10.1748C23.7046 10.1748 23.5689 10.2387 23.4688 10.3524C23.3687 10.4662 23.3125 10.6204 23.3125 10.7812Z" fill="#FDC767"/>
<path d="M23.8505 2.87109V3.77344V2.87109ZM23.8505 4.06641C23.7087 4.06641 23.5927 3.93457 23.5927 3.77344V2.87109C23.5927 2.70996 23.7087 2.57812 23.8505 2.57812C23.9923 2.57812 24.1083 2.70996 24.1083 2.87109V3.77344C24.1083 3.93457 23.9923 4.06641 23.8505 4.06641ZM23.8505 5.29102V6.19043V5.29102ZM23.8505 6.4834C23.7087 6.4834 23.5927 6.35156 23.5927 6.19043V5.28809C23.5927 5.12695 23.7087 4.99512 23.8505 4.99512C23.9923 4.99512 24.1083 5.12695 24.1083 5.28809V6.19043C24.1083 6.35449 23.9923 6.4834 23.8505 6.4834ZM22.3887 4.53223H23.1827H22.3887ZM23.1827 4.8252H22.3887C22.2469 4.8252 22.1309 4.69336 22.1309 4.53223C22.1309 4.37109 22.2469 4.23926 22.3887 4.23926H23.1827C23.3245 4.23926 23.4405 4.37109 23.4405 4.53223C23.4405 4.69336 23.3245 4.8252 23.1827 4.8252ZM24.5182 4.53223H25.3097H24.5182ZM25.3097 4.8252H24.5182C24.3764 4.8252 24.2604 4.69336 24.2604 4.53223C24.2604 4.37109 24.3764 4.23926 24.5182 4.23926H25.3123C25.4541 4.23926 25.5701 4.37109 25.5701 4.53223C25.5701 4.69336 25.4541 4.8252 25.3097 4.8252Z" fill="#FDC767"/>
<path d="M22.8171 5.70703L23.3791 5.06836L22.8171 5.70703ZM22.8171 6C22.75 6 22.6856 5.9707 22.634 5.91504C22.5335 5.80078 22.5335 5.61621 22.634 5.50195L23.196 4.86328C23.2966 4.74902 23.459 4.74902 23.5596 4.86328C23.6601 4.97754 23.6601 5.16211 23.5596 5.27637L22.9975 5.91504C22.9485 5.9707 22.8841 6 22.8171 6Z" fill="#FDC767"/>
<path d="M24.3229 3.99609L24.8824 3.35742L24.3229 3.99609ZM24.3229 4.28906C24.2559 4.28906 24.1914 4.25977 24.1399 4.2041C24.0393 4.08984 24.0393 3.90527 24.1399 3.79102L24.7019 3.15234C24.8024 3.03809 24.9649 3.03809 25.0654 3.15234C25.166 3.2666 25.166 3.45117 25.0654 3.56543L24.5034 4.2041C24.4544 4.25977 24.3899 4.28906 24.3229 4.28906Z" fill="#FDC767"/>
<path d="M24.881 5.70703L24.3216 5.06836L24.881 5.70703ZM24.881 6C24.814 6 24.7496 5.9707 24.698 5.91504L24.136 5.27637C24.0354 5.16211 24.0354 4.97754 24.136 4.86328C24.2365 4.74902 24.3989 4.74902 24.4995 4.86328L25.0615 5.50195C25.1621 5.61621 25.1621 5.80078 25.0615 5.91504C25.0151 5.9707 24.9481 6 24.881 6Z" fill="#FDC767"/>
<path d="M23.3791 3.99609L22.8171 3.35742L23.3791 3.99609ZM23.3791 4.28906C23.312 4.28906 23.2476 4.25977 23.196 4.2041L22.634 3.56543C22.5335 3.45117 22.5335 3.2666 22.634 3.15234C22.7346 3.03809 22.897 3.03809 22.9975 3.15234L23.5596 3.79102C23.6601 3.90527 23.6601 4.08984 23.5596 4.2041C23.5106 4.25977 23.4435 4.28906 23.3791 4.28906Z" fill="#FDC767"/>
</svg>
