<svg width="27" height="30" viewBox="0 0 27 30" fill="none" xmlns="http://www.w3.org/2000/svg">
<path d="M14.2861 19.4443C12.863 19.4443 11.396 18.8818 10.1379 17.8301C8.70187 16.6289 7.75828 14.9619 7.54688 13.251L8.97773 13.0254C9.135 14.2998 9.86719 15.5684 10.9938 16.5088C12.2262 17.5371 13.6931 17.9854 15.0157 17.7363C17.8259 17.2061 19.9941 14.2969 19.6537 11.5107L21.0846 11.2852C21.1955 12.1904 21.1181 13.1162 20.8552 14.0361C20.6051 14.9062 20.2029 15.7236 19.6589 16.4707C19.1175 17.2119 18.4678 17.8389 17.7279 18.3311C16.957 18.8467 16.1243 19.1895 15.2529 19.3535C14.9358 19.415 14.6109 19.4443 14.2861 19.4443Z" fill="#FF416C"/>
<path d="M11.0334 12.8643C10.6776 12.8643 10.3708 12.5684 10.3193 12.1582C10.2651 11.71 10.541 11.294 10.9355 11.2324L12.0801 11.0508C12.4746 10.9893 12.8407 11.3028 12.8948 11.751C12.949 12.1992 12.6731 12.6153 12.2787 12.6768L11.134 12.8584C11.0979 12.8613 11.0644 12.8643 11.0334 12.8643Z" fill="#FF416C"/>
<path d="M14.8715 12.7588L18.7335 12.1465C19.0352 14.6045 17.1377 16.8867 14.8792 17.291C12.9276 17.6426 10.4423 15.9609 10.1406 13.5059L11.7262 13.2539L12.033 13.2041" fill="#FF416C"/>
<path d="M14.2733 21.6504C12.4712 21.6504 10.7104 21.0293 9.21248 19.8516C7.38201 18.4102 6.10069 16.2656 5.60569 13.8106C5.51803 13.3799 5.59537 12.9258 5.81451 12.5625C6.03623 12.1963 6.38428 11.9531 6.771 11.8916L8.92115 11.5518C9.31561 11.4902 9.6817 11.8037 9.73584 12.252C9.78998 12.7002 9.51412 13.1162 9.11967 13.1777L7.02365 13.5059C7.90537 17.707 11.5328 20.5254 15.3097 19.9277C19.0867 19.3301 21.8969 15.4951 21.737 11.1797L15.6114 12.1494C15.2169 12.211 14.8508 11.8975 14.7967 11.4492C14.7426 11.001 15.0184 10.585 15.4129 10.5235L21.5926 9.54494C21.9794 9.48341 22.3738 9.60939 22.6729 9.89357C22.9719 10.1748 23.155 10.5879 23.1756 11.0274C23.289 13.544 22.5698 16.0049 21.1569 17.959C19.7338 19.9248 17.728 21.1992 15.5083 21.5508C15.0958 21.6182 14.6833 21.6504 14.2733 21.6504ZM12.2985 14.2735L12.0974 14.5899L12.2985 14.2735Z" fill="#FDC767"/>
<path d="M12.0951 15.1758C11.9894 15.1758 11.8837 15.1406 11.7935 15.0645C11.5614 14.874 11.5099 14.5078 11.6775 14.2471L11.8785 13.9277C12.0461 13.6641 12.3684 13.6055 12.5978 13.7959C12.8299 13.9863 12.8814 14.3525 12.7139 14.6133L12.5128 14.9326C12.4122 15.0937 12.255 15.1758 12.0951 15.1758ZM14.8124 13.8486L14.6088 14.165L14.8124 13.8486ZM14.6088 14.751C14.5031 14.751 14.3974 14.7158 14.3071 14.6396C14.0751 14.4492 14.0235 14.083 14.1911 13.8223L14.3922 13.5029C14.5598 13.2393 14.8821 13.1807 15.1115 13.3711C15.3435 13.5615 15.3951 13.9277 15.2275 14.1885L15.0264 14.5078C14.9259 14.6689 14.7686 14.751 14.6088 14.751ZM17.0322 13.4619L16.8311 13.7812L17.0322 13.4619ZM16.8311 14.3672C16.7254 14.3672 16.6197 14.332 16.5295 14.2559C16.2975 14.0654 16.2459 13.6992 16.4135 13.4385L16.6146 13.1191C16.7821 12.8555 17.1044 12.7969 17.3339 12.9873C17.5659 13.1777 17.6175 13.5439 17.4499 13.8047L17.2488 14.124C17.1482 14.2822 16.991 14.3672 16.8311 14.3672ZM13.9668 15.9346L13.7657 16.251L13.9668 15.9346ZM13.7657 16.8369C13.66 16.8369 13.5543 16.8018 13.4641 16.7256C13.2321 16.5352 13.1805 16.1689 13.3481 15.9082L13.5492 15.5889C13.7167 15.3252 14.039 15.2666 14.2685 15.457C14.5005 15.6475 14.5521 16.0137 14.3845 16.2744L14.1834 16.5938C14.0828 16.7549 13.9256 16.8369 13.7657 16.8369ZM16.2975 15.5156L16.0938 15.835L16.2975 15.5156ZM16.0938 16.4209C15.9881 16.4209 15.8824 16.3857 15.7921 16.3096C15.5601 16.1191 15.5085 15.7529 15.6761 15.4922L15.8772 15.1729C16.0448 14.9092 16.3671 14.8506 16.5965 15.041C16.8285 15.2314 16.8801 15.5977 16.7125 15.8584L16.5114 16.1777C16.4109 16.3359 16.2536 16.4209 16.0938 16.4209ZM22.8485 5.13281C23.1578 5.13281 23.4079 5.41699 23.4079 5.76855C23.4079 6.12012 23.1578 6.4043 22.8485 6.4043C22.5391 6.4043 22.289 6.12012 22.289 5.76855C22.289 5.41699 22.5417 5.13281 22.8485 5.13281ZM22.8485 3.96094C21.9719 3.96094 21.2578 4.77246 21.2578 5.76855C21.2578 6.76465 21.9719 7.57617 22.8485 7.57617C23.725 7.57617 24.4392 6.76465 24.4392 5.76855C24.4392 4.77246 23.7276 3.96094 22.8485 3.96094ZM5.91019 25.4238H5.90503C5.69104 25.4209 5.52089 25.2217 5.52347 24.9785L5.54925 22.9424C5.55183 22.7021 5.72456 22.5088 5.93597 22.5088H5.94112C6.15511 22.5117 6.32526 22.7109 6.32269 22.9541L6.2969 24.9902C6.29433 25.2305 6.12159 25.4238 5.91019 25.4238Z" fill="#FDC767"/>
<path d="M7.20977 23.9825V23.9883C7.20719 24.2315 7.03188 24.4248 6.81789 24.4219L5.02609 24.3926C4.81469 24.3897 4.64453 24.1934 4.64453 23.9532V23.9473C4.64711 23.7041 4.82242 23.5108 5.03641 23.5137L6.8282 23.543C7.03961 23.5459 7.20977 23.7422 7.20977 23.9825Z" fill="#FDC767"/>
<path d="M21.9961 23.4668C21.9961 23.7069 22.08 23.9372 22.2294 24.1069C22.3788 24.2767 22.5815 24.3721 22.7927 24.3721C23.004 24.3721 23.2066 24.2767 23.356 24.1069C23.5054 23.9372 23.5894 23.7069 23.5894 23.4668C23.5894 23.2267 23.5054 22.9964 23.356 22.8267C23.2066 22.6569 23.004 22.5615 22.7927 22.5615C22.5815 22.5615 22.3788 22.6569 22.2294 22.8267C22.08 22.9964 21.9961 23.2267 21.9961 23.4668Z" fill="#FDC767"/>
<path d="M4.33594 8.99414C4.33594 9.15498 4.39216 9.30923 4.49225 9.42296C4.59233 9.53669 4.72807 9.60059 4.86961 9.60059C5.01115 9.60059 5.14689 9.53669 5.24697 9.42296C5.34706 9.30923 5.40328 9.15498 5.40328 8.99414C5.40328 8.8333 5.34706 8.67905 5.24697 8.56532C5.14689 8.45159 5.01115 8.3877 4.86961 8.3877C4.72807 8.3877 4.59233 8.45159 4.49225 8.56532C4.39216 8.67905 4.33594 8.8333 4.33594 8.99414Z" fill="#FDC767"/>
<path d="M12.2148 3.69141V4.59375V3.69141ZM12.2148 4.88672C12.073 4.88672 11.957 4.75488 11.957 4.59375V3.69141C11.957 3.53027 12.073 3.39844 12.2148 3.39844C12.3566 3.39844 12.4727 3.53027 12.4727 3.69141V4.59375C12.4727 4.75488 12.3566 4.88672 12.2148 4.88672ZM12.2148 6.11133V7.01367V6.11133ZM12.2148 7.30664C12.073 7.30664 11.957 7.1748 11.957 7.01367V6.11133C11.957 5.9502 12.073 5.81836 12.2148 5.81836C12.3566 5.81836 12.4727 5.9502 12.4727 6.11133V7.01367C12.4727 7.1748 12.3566 7.30664 12.2148 7.30664Z" fill="#FDC767"/>
<path d="M10.75 5.35254H11.5441H10.75ZM11.5441 5.64551H10.75C10.6082 5.64551 10.4922 5.51367 10.4922 5.35254C10.4922 5.19141 10.6082 5.05957 10.75 5.05957H11.5441C11.6859 5.05957 11.8019 5.19141 11.8019 5.35254C11.8019 5.51367 11.6859 5.64551 11.5441 5.64551Z" fill="#FDC767"/>
<path d="M12.8789 5.35254H13.673H12.8789ZM13.673 5.64551H12.8789C12.7371 5.64551 12.6211 5.51367 12.6211 5.35254C12.6211 5.19141 12.7371 5.05957 12.8789 5.05957H13.673C13.8148 5.05957 13.9308 5.19141 13.9308 5.35254C13.9308 5.51367 13.8148 5.64551 13.673 5.64551Z" fill="#FDC767"/>
<path d="M11.1803 6.52734L11.7424 5.88867L11.1803 6.52734ZM11.1803 6.82031C11.1133 6.82031 11.0488 6.79102 10.9973 6.73535C10.8967 6.62109 10.8967 6.43652 10.9973 6.32227L11.5593 5.68359C11.6599 5.56934 11.8223 5.56934 11.9228 5.68359C12.0234 5.79785 12.0234 5.98242 11.9228 6.09668L11.3608 6.73535C11.3118 6.79102 11.2474 6.82031 11.1803 6.82031Z" fill="#FDC767"/>
<path d="M12.6842 4.81641L13.2463 4.17773L12.6842 4.81641ZM12.6842 5.10937C12.6172 5.10937 12.5528 5.08008 12.5012 5.02441C12.4006 4.91016 12.4006 4.72559 12.5012 4.61133L13.0632 3.97266C13.1638 3.8584 13.3262 3.8584 13.4267 3.97266C13.5273 4.08691 13.5273 4.27148 13.4267 4.38574L12.8647 5.02441C12.8157 5.08008 12.7513 5.10937 12.6842 5.10937Z" fill="#FDC767"/>
<path d="M13.2463 6.52734L12.6842 5.88867L13.2463 6.52734ZM13.2463 6.82031C13.1792 6.82031 13.1148 6.79102 13.0632 6.73535L12.5012 6.09668C12.4006 5.98242 12.4006 5.79785 12.5012 5.68359C12.6017 5.56934 12.7642 5.56934 12.8647 5.68359L13.4267 6.32227C13.5273 6.43652 13.5273 6.62109 13.4267 6.73535C13.3778 6.79102 13.3107 6.82031 13.2463 6.82031Z" fill="#FDC767"/>
<path d="M11.7424 4.81641L11.1803 4.17773L11.7424 4.81641ZM11.7424 5.10937C11.6753 5.10937 11.6109 5.08008 11.5593 5.02441L10.9973 4.38574C10.8967 4.27148 10.8967 4.08691 10.9973 3.97266C11.0978 3.8584 11.2603 3.8584 11.3608 3.97266L11.9228 4.61133C12.0234 4.72559 12.0234 4.91016 11.9228 5.02441C11.8738 5.08008 11.8068 5.10937 11.7424 5.10937Z" fill="#FDC767"/>
</svg>
