<svg width="12" height="7" viewBox="0 0 12 7" fill="none" xmlns="http://www.w3.org/2000/svg">
<path d="M1.43512 0.183233L6.00002 4.74811L10.5649 0.183233C10.6823 0.0658898 10.8415 -3.05146e-05 11.0074 -3.05219e-05C11.1734 -3.05291e-05 11.3326 0.0658898 11.45 0.183233L11.8168 0.550025C11.9341 0.667403 12 0.826582 12 0.992555C12 1.15853 11.9341 1.31771 11.8168 1.43509L6.44255 6.80929C6.32517 6.92663 6.16599 6.99255 6.00002 6.99255C5.83404 6.99255 5.67486 6.92663 5.55748 6.80929L0.183263 1.43509C0.0659196 1.31771 -2.55014e-07 1.15853 -2.62269e-07 0.992556C-2.69524e-07 0.826582 0.0659195 0.667404 0.183263 0.550025L0.550057 0.183233C0.667436 0.0658903 0.826614 -3.00769e-05 0.992588 -3.00841e-05C1.15856 -3.00914e-05 1.31774 0.0658903 1.43512 0.183233Z" fill="#FF416C"/>
</svg>
