<svg width="27" height="30" viewBox="0 0 27 30" fill="none" xmlns="http://www.w3.org/2000/svg">
<path d="M18.3933 22.7344C17.692 22.7344 16.916 22.5645 16.0627 22.377C14.9515 22.1338 13.6934 21.8584 12.2883 21.8789C11.6437 21.8877 10.9064 21.9609 10.1948 22.0312C8.9264 22.1572 7.61414 22.2891 6.5571 22.0898C4.78078 21.7559 4.29351 20.5576 4.19812 19.6084C4.14398 19.0781 4.07695 18.2812 4.09757 17.458C4.11046 17.0039 4.44304 16.6494 4.84265 16.6641C5.24226 16.6787 5.55421 17.0566 5.54132 17.5107C5.5207 18.2285 5.58257 18.9463 5.63156 19.4238C5.67281 19.834 5.79913 20.2881 6.79171 20.4727C7.66828 20.6367 8.88773 20.5166 10.0659 20.3965C10.8059 20.3232 11.569 20.2471 12.2702 20.2383C13.8223 20.2178 15.2144 20.5225 16.3334 20.7656C17.4316 21.0059 18.3804 21.2139 18.9862 21.0117C19.2234 20.9326 19.7777 20.748 20.0871 19.002C20.0948 18.9521 20.1026 18.9023 20.1052 18.8496C20.1129 18.7412 20.1361 18.6357 20.1799 18.5391C20.3114 18.2402 20.4197 17.8623 20.4996 17.4082C20.5795 16.9629 20.9585 16.6758 21.3504 16.7666C21.7423 16.8574 21.9949 17.2881 21.915 17.7334C21.8196 18.2725 21.6933 18.7324 21.5309 19.1338C21.5231 19.1982 21.5128 19.2656 21.5025 19.3271C21.3401 20.2471 21.0951 20.9502 20.7574 21.4834C20.4094 22.0312 19.9505 22.4004 19.3936 22.5879C19.0791 22.6904 18.7465 22.7344 18.3933 22.7344ZM12.6802 11.584C12.6492 11.584 12.6209 11.5811 12.5899 11.5781C12.1852 11.5195 11.7855 11.4902 11.4066 11.4902C11.0069 11.4902 10.6847 11.124 10.6847 10.6699C10.6847 10.2158 11.0069 9.84961 11.4066 9.84961C11.8448 9.84961 12.3037 9.88184 12.7704 9.94922C13.1648 10.0049 13.4459 10.415 13.3969 10.8662C13.3505 11.2793 13.0411 11.584 12.6802 11.584Z" fill="#FF416C"/>
<path d="M18.9803 20.9209C18.1914 20.9209 17.3071 20.6807 16.348 20.417C15.126 20.0831 13.7415 19.7081 12.2488 19.7256C11.5578 19.7344 10.7638 19.8282 9.99292 19.919C8.74769 20.0655 7.4612 20.2178 6.42995 20.042C4.68199 19.7432 4.20245 18.5626 4.10964 17.6251C3.96269 16.1631 4.33394 14.5694 5.13316 13.251C6.02003 11.7862 7.34261 10.7374 8.95909 10.2188C9.34324 10.0958 9.74285 10.3477 9.85113 10.7842C9.95941 11.2208 9.73769 11.6749 9.35355 11.7979C6.60011 12.6827 5.33683 15.3663 5.54566 17.4405C5.58433 17.8301 5.7055 18.2608 6.64652 18.4219C7.4973 18.5684 8.69097 18.4278 9.84597 18.2901C10.6478 18.1963 11.4779 18.0967 12.2333 18.0879C13.9039 18.0674 15.3812 18.4688 16.6857 18.8233C18.0212 19.1866 19.1762 19.503 19.7666 19.0723C20.1069 18.8262 20.3493 18.2813 20.5039 17.4083C20.6122 16.8047 20.2281 15.9668 19.4546 15.1114C18.5987 14.1651 17.3483 13.2774 15.9381 12.6094C15.6854 12.4893 15.4276 12.378 15.1698 12.2754C14.7934 12.126 14.5949 11.6573 14.7264 11.2295C14.8578 10.8018 15.2703 10.5762 15.6468 10.7256C15.9303 10.837 16.2139 10.9629 16.4924 11.0918C18.0676 11.836 19.4753 12.8438 20.4601 13.9307C21.6254 15.2168 22.1307 16.5323 21.9168 17.7276C21.6796 19.0606 21.231 19.9512 20.5426 20.4522C20.076 20.795 19.5526 20.9209 18.9803 20.9209Z" fill="#FDC767"/>
<path d="M10.1822 12.0439C7.88507 12.7412 6.82546 15.0087 7.00851 16.8281C7.21991 18.9169 10.2905 17.8652 12.4432 17.8359C15.8618 17.7919 18.3935 20.3818 19.02 16.8544C19.2675 15.454 17.5427 13.6933 15.3565 12.6621C15.1631 12.5712 14.9646 12.4833 14.7635 12.4042C14.7661 12.4072 12.0565 11.4755 10.1822 12.0439Z" fill="#FF416C"/>
<path d="M9.64526 16.5527C9.49831 16.5527 9.35393 16.4824 9.25081 16.3447C9.06776 16.0986 9.09354 15.7295 9.3101 15.5186L11.2514 13.6494C11.468 13.4414 11.7928 13.4707 11.9785 13.7168C12.1615 13.9629 12.1357 14.332 11.9192 14.543L9.97784 16.4121C9.88245 16.5059 9.76385 16.5527 9.64526 16.5527ZM13.0123 17.0186C12.8705 17.0186 12.7287 16.9512 12.6282 16.8223C12.4399 16.582 12.458 16.21 12.6694 15.9961L14.5617 14.0801C14.7732 13.8662 15.1006 13.8867 15.2888 14.127C15.477 14.3672 15.4589 14.7393 15.2475 14.9531L13.3552 16.8721C13.2572 16.9717 13.136 17.0186 13.0123 17.0186ZM22.2574 4.6875C22.5668 4.6875 22.8169 4.97168 22.8169 5.32324C22.8169 5.6748 22.5668 5.95898 22.2574 5.95898C21.9481 5.95898 21.698 5.6748 21.698 5.32324C21.698 4.97168 21.9481 4.6875 22.2574 4.6875ZM22.2574 3.51562C21.3809 3.51562 20.6667 4.32715 20.6667 5.32324C20.6667 6.31934 21.3809 7.13086 22.2574 7.13086C23.134 7.13086 23.8482 6.31934 23.8482 5.32324C23.8482 4.32715 23.134 3.51562 22.2574 3.51562ZM19.9165 26.54H19.9114L18.1196 26.5107C17.9056 26.5078 17.7354 26.3086 17.738 26.0654C17.7406 25.8252 17.9133 25.6318 18.1247 25.6318H18.1299L19.9217 25.6611C20.1357 25.6641 20.3058 25.8633 20.3032 26.1064C20.3007 26.3467 20.1279 26.54 19.9165 26.54Z" fill="#FDC767"/>
<path d="M19.0078 27.3984H19.0027C18.7887 27.3955 18.6185 27.1963 18.6211 26.9531L18.6469 24.917C18.6495 24.6768 18.8222 24.4834 19.0336 24.4834H19.0388C19.2528 24.4863 19.4229 24.6855 19.4203 24.9287L19.3946 26.9648C19.392 27.208 19.2192 27.3984 19.0078 27.3984Z" fill="#FDC767"/>
<path d="M4.99219 25.0488C4.99219 25.2889 5.07612 25.5192 5.22552 25.689C5.37492 25.8587 5.57755 25.9541 5.78883 25.9541C6.00011 25.9541 6.20274 25.8587 6.35214 25.689C6.50154 25.5192 6.58547 25.2889 6.58547 25.0488C6.58547 24.8087 6.50154 24.5785 6.35214 24.4087C6.20274 24.2389 6.00011 24.1436 5.78883 24.1436C5.57755 24.1436 5.37492 24.2389 5.22552 24.4087C5.07612 24.5785 4.99219 24.8087 4.99219 25.0488Z" fill="#FDC767"/>
<path d="M11.4648 5.06543C11.4648 5.22627 11.5211 5.38052 11.6212 5.49425C11.7212 5.60798 11.857 5.67188 11.9985 5.67188C12.1401 5.67188 12.2758 5.60798 12.3759 5.49425C12.476 5.38052 12.5322 5.22627 12.5322 5.06543C12.5322 4.90459 12.476 4.75034 12.3759 4.63661C12.2758 4.52288 12.1401 4.45898 11.9985 4.45898C11.857 4.45898 11.7212 4.52288 11.6212 4.63661C11.5211 4.75034 11.4648 4.90459 11.4648 5.06543Z" fill="#FDC767"/>
<path d="M3.875 3.87012V4.77246V3.87012ZM3.875 5.06543C3.7332 5.06543 3.61719 4.93359 3.61719 4.77246V3.87012C3.61719 3.70898 3.7332 3.57715 3.875 3.57715C4.0168 3.57715 4.13281 3.70898 4.13281 3.87012V4.77246C4.13281 4.93359 4.0168 5.06543 3.875 5.06543ZM3.875 6.29004V7.19238V6.29004ZM3.875 7.48535C3.7332 7.48535 3.61719 7.35352 3.61719 7.19238V6.29004C3.61719 6.12891 3.7332 5.99707 3.875 5.99707C4.0168 5.99707 4.13281 6.12891 4.13281 6.29004V7.19238C4.13281 7.35352 4.0168 7.48535 3.875 7.48535Z" fill="#FDC767"/>
<path d="M2.41406 5.53125H3.20813H2.41406ZM3.20813 5.82422H2.41406C2.27227 5.82422 2.15625 5.69238 2.15625 5.53125C2.15625 5.37012 2.27227 5.23828 2.41406 5.23828H3.20813C3.34992 5.23828 3.46594 5.37012 3.46594 5.53125C3.46594 5.69238 3.34992 5.82422 3.20813 5.82422Z" fill="#FDC767"/>
<path d="M4.54297 5.53125H5.33703H4.54297ZM5.33703 5.82422H4.54297C4.40117 5.82422 4.28516 5.69238 4.28516 5.53125C4.28516 5.37012 4.40117 5.23828 4.54297 5.23828H5.33703C5.47883 5.23828 5.59484 5.37012 5.59484 5.53125C5.59484 5.69238 5.47883 5.82422 5.33703 5.82422Z" fill="#FDC767"/>
<path d="M2.84049 6.70605L3.40252 6.06738L2.84049 6.70605ZM2.84049 6.99902C2.77346 6.99902 2.709 6.96973 2.65744 6.91406C2.55689 6.7998 2.55689 6.61523 2.65744 6.50098L3.21947 5.8623C3.32002 5.74805 3.48244 5.74805 3.58299 5.8623C3.68354 5.97656 3.68354 6.16113 3.58299 6.27539L3.02096 6.91406C2.97197 6.96973 2.90752 6.99902 2.84049 6.99902Z" fill="#FDC767"/>
<path d="M4.3483 4.99512L4.91033 4.35645L4.3483 4.99512ZM4.3483 5.28809C4.28127 5.28809 4.21682 5.25879 4.16525 5.20312C4.06471 5.08887 4.06471 4.9043 4.16525 4.79004L4.72728 4.15137C4.82783 4.03711 4.99025 4.03711 5.0908 4.15137C5.19135 4.26562 5.19135 4.4502 5.0908 4.56445L4.52877 5.20312C4.47978 5.25879 4.41533 5.28809 4.3483 5.28809Z" fill="#FDC767"/>
<path d="M4.91033 6.70605L4.3483 6.06738L4.91033 6.70605ZM4.91033 6.99902C4.8433 6.99902 4.77885 6.96973 4.72728 6.91406L4.16525 6.27539C4.06471 6.16113 4.06471 5.97656 4.16525 5.8623C4.2658 5.74805 4.42822 5.74805 4.52877 5.8623L5.0908 6.50098C5.19135 6.61523 5.19135 6.7998 5.0908 6.91406C5.04182 6.96973 4.97478 6.99902 4.91033 6.99902Z" fill="#FDC767"/>
<path d="M3.40252 4.99512L2.84049 4.35645L3.40252 4.99512ZM3.40252 5.28809C3.33549 5.28809 3.27104 5.25879 3.21947 5.20312L2.65744 4.56445C2.55689 4.4502 2.55689 4.26562 2.65744 4.15137C2.75799 4.03711 2.92041 4.03711 3.02096 4.15137L3.58299 4.79004C3.68354 4.9043 3.68354 5.08887 3.58299 5.20312C3.534 5.25879 3.46697 5.28809 3.40252 5.28809Z" fill="#FDC767"/>
</svg>
