<svg width="27" height="30" viewBox="0 0 27 30" fill="none" xmlns="http://www.w3.org/2000/svg">
<path d="M15.6966 9.86719H16.4572C16.6634 9.86719 16.831 10.0693 16.831 10.3213V20.5928C16.831 20.8418 16.6634 21.0469 16.4572 21.0469H9.11211C8.90586 21.0469 8.73828 20.8447 8.73828 20.5928V10.3213C8.73828 10.0723 8.90586 9.86719 9.11211 9.86719H9.91391" fill="#FF416C"/>
<path d="M17.6981 23.6074H7.87289C7.04789 23.6074 6.375 22.8428 6.375 21.9053V8.92676C6.375 7.98926 7.04789 7.22461 7.87289 7.22461H8.74945C9.14906 7.22461 9.47133 7.59082 9.47133 8.04492C9.47133 8.49902 9.14906 8.86523 8.74945 8.86523H7.87289C7.84195 8.86523 7.81875 8.8916 7.81875 8.92676V21.9053C7.81875 21.9404 7.84195 21.9668 7.87289 21.9668H17.6981C17.7291 21.9668 17.7523 21.9404 17.7523 21.9053V8.92676C17.7523 8.8916 17.7291 8.86523 17.6981 8.86523H16.8783C16.4787 8.86523 16.1564 8.49902 16.1564 8.04492C16.1564 7.59082 16.4787 7.22461 16.8783 7.22461H17.6981C18.5231 7.22461 19.196 7.98926 19.196 8.92676V21.9053C19.196 22.8457 18.5257 23.6074 17.6981 23.6074Z" fill="#FF416C"/>
<path d="M14.1345 8.86523H11.0665C10.6669 8.86523 10.3446 8.49902 10.3446 8.04492C10.3446 7.59082 10.6669 7.22461 11.0665 7.22461H14.1345C14.5341 7.22461 14.8563 7.59082 14.8563 8.04492C14.8563 8.49902 14.5341 8.86523 14.1345 8.86523ZM12.8609 19.2334H10.3987C9.99914 19.2334 9.67687 18.8672 9.67687 18.4131C9.67687 17.959 9.99914 17.5928 10.3987 17.5928H12.8609C13.2605 17.5928 13.5827 17.959 13.5827 18.4131C13.5827 18.8672 13.2605 19.2334 12.8609 19.2334ZM15.1657 16.1397H10.3987C9.99914 16.1397 9.67687 15.7734 9.67687 15.3193C9.67687 14.8652 9.99914 14.499 10.3987 14.499H15.1657C15.5653 14.499 15.8876 14.8652 15.8876 15.3193C15.8876 15.7734 15.5653 16.1397 15.1657 16.1397ZM15.1657 12.9961H10.3987C9.99914 12.9961 9.67687 12.6299 9.67687 12.1758C9.67687 11.7217 9.99914 11.3555 10.3987 11.3555H15.1657C15.5653 11.3555 15.8876 11.7217 15.8876 12.1758C15.8876 12.6299 15.5653 12.9961 15.1657 12.9961ZM3.8993 3.6416C4.20867 3.6416 4.45875 3.92578 4.45875 4.27734C4.45875 4.62891 4.20867 4.91309 3.8993 4.91309C3.58992 4.91309 3.33984 4.62891 3.33984 4.27734C3.33984 3.92578 3.5925 3.6416 3.8993 3.6416ZM3.8993 2.46973C3.02273 2.46973 2.30859 3.28125 2.30859 4.27734C2.30859 5.27344 3.02273 6.08496 3.8993 6.08496C4.77586 6.08496 5.49 5.27344 5.49 4.27734C5.49 3.28125 4.77844 2.46973 3.8993 2.46973ZM21.5208 5.47559H21.5156C21.3016 5.47266 21.1315 5.27344 21.1341 5.03027L21.1598 2.99414C21.1624 2.75391 21.3352 2.56055 21.5466 2.56055H21.5517C21.7657 2.56348 21.9359 2.7627 21.9333 3.00586L21.9075 5.04199C21.9049 5.28223 21.7322 5.47559 21.5208 5.47559Z" fill="#FDC767"/>
<path d="M22.8191 4.03128V4.03714C22.8166 4.28031 22.6413 4.47367 22.4273 4.47074L20.6355 4.44144C20.4241 4.43851 20.2539 4.24222 20.2539 4.00199V3.99613C20.2565 3.75296 20.4318 3.5596 20.6458 3.56253L22.4376 3.59183C22.649 3.59476 22.8191 3.79105 22.8191 4.03128Z" fill="#FDC767"/>
<path d="M21.5703 14.168C21.5703 14.4081 21.6542 14.6383 21.8036 14.8081C21.953 14.9779 22.1557 15.0732 22.367 15.0732C22.5782 15.0732 22.7809 14.9779 22.9303 14.8081C23.0797 14.6383 23.1636 14.4081 23.1636 14.168C23.1636 13.9279 23.0797 13.6976 22.9303 13.5278C22.7809 13.3581 22.5782 13.2627 22.367 13.2627C22.1557 13.2627 21.953 13.3581 21.8036 13.5278C21.6542 13.6976 21.5703 13.9279 21.5703 14.168Z" fill="#FDC767"/>
<path d="M22.375 26.3115C22.375 26.4724 22.4312 26.6266 22.5313 26.7403C22.6314 26.8541 22.7671 26.918 22.9087 26.918C23.0502 26.918 23.186 26.8541 23.286 26.7403C23.3861 26.6266 23.4423 26.4724 23.4423 26.3115C23.4423 26.1507 23.3861 25.9964 23.286 25.8827C23.186 25.769 23.0502 25.7051 22.9087 25.7051C22.7671 25.7051 22.6314 25.769 22.5313 25.8827C22.4312 25.9964 22.375 26.1507 22.375 26.3115Z" fill="#FDC767"/>
<path d="M3.18578 24.5391V25.4414V24.5391ZM3.18578 25.7344C3.04398 25.7344 2.92797 25.6025 2.92797 25.4414V24.5391C2.92797 24.3779 3.04398 24.2461 3.18578 24.2461C3.32758 24.2461 3.44359 24.3779 3.44359 24.5391V25.4414C3.44359 25.6025 3.33016 25.7344 3.18578 25.7344ZM3.18578 26.959V27.8584V26.959ZM3.18578 28.1514C3.04398 28.1514 2.92797 28.0195 2.92797 27.8584V26.9561C2.92797 26.7949 3.04398 26.6631 3.18578 26.6631C3.32758 26.6631 3.44359 26.7949 3.44359 26.9561V27.8584C3.44359 28.0225 3.33016 28.1514 3.18578 28.1514ZM1.72656 26.2002H2.51805H1.72656ZM2.51805 26.4932H1.72656C1.58477 26.4932 1.46875 26.3613 1.46875 26.2002C1.46875 26.0391 1.58477 25.9072 1.72656 25.9072H2.52063C2.66242 25.9072 2.77844 26.0391 2.77844 26.2002C2.77844 26.3613 2.66242 26.4932 2.51805 26.4932ZM3.85352 26.2002H4.64758H3.85352ZM4.64758 26.4932H3.85352C3.71172 26.4932 3.5957 26.3613 3.5957 26.2002C3.5957 26.0391 3.71172 25.9072 3.85352 25.9072H4.64758C4.78938 25.9072 4.90539 26.0391 4.90539 26.2002C4.90539 26.3613 4.78938 26.4932 4.64758 26.4932Z" fill="#FDC767"/>
<path d="M2.15689 27.3721L2.71635 26.7363L2.15689 27.3721ZM2.15689 27.665C2.08986 27.665 2.02541 27.6357 1.97385 27.5801C1.8733 27.4658 1.8733 27.2812 1.97385 27.167L2.53588 26.5283C2.63643 26.4141 2.79885 26.4141 2.89939 26.5283C2.99994 26.6426 2.99994 26.8271 2.89939 26.9414L2.33736 27.5801C2.28838 27.6387 2.22135 27.665 2.15689 27.665Z" fill="#FDC767"/>
<path d="M3.6608 25.6641L4.22025 25.0254L3.6608 25.6641ZM3.6608 25.957C3.59377 25.957 3.52932 25.9277 3.47775 25.8721C3.37721 25.7578 3.37721 25.5732 3.47775 25.459L4.03979 24.8203C4.14033 24.7061 4.30275 24.7061 4.4033 24.8203C4.50385 24.9346 4.50385 25.1191 4.4033 25.2334L3.84127 25.8691C3.79229 25.9277 3.72525 25.957 3.6608 25.957Z" fill="#FDC767"/>
<path d="M4.21893 27.3721L3.65947 26.7363L4.21893 27.3721ZM4.21893 27.665C4.15189 27.665 4.08744 27.6357 4.03588 27.5801L3.47385 26.9414C3.3733 26.8271 3.3733 26.6426 3.47385 26.5283C3.57439 26.4141 3.73682 26.4141 3.83736 26.5283L4.39939 27.167C4.49994 27.2812 4.49994 27.4658 4.39939 27.5801C4.35041 27.6387 4.28596 27.665 4.21893 27.665Z" fill="#FDC767"/>
<path d="M2.71502 25.6641L2.15557 25.0254L2.71502 25.6641ZM2.71502 25.957C2.64799 25.957 2.58353 25.9277 2.53197 25.8721L1.96994 25.2334C1.86939 25.1191 1.86939 24.9346 1.96994 24.8203C2.07049 24.7061 2.23291 24.7061 2.33346 24.8203L2.89549 25.459C2.99603 25.5732 2.99603 25.7578 2.89549 25.8721C2.84908 25.9277 2.78205 25.957 2.71502 25.957Z" fill="#FDC767"/>
</svg>
