<svg width="12" height="14" viewBox="0 0 12 14" fill="none" xmlns="http://www.w3.org/2000/svg">
<path d="M10.8864 8.58125C10.6364 7.77813 10.3489 7.10312 9.9067 5.99844C9.97546 3.09687 8.76921 0.75 5.99108 0.75C3.18171 0.75 2.00202 3.14375 2.07702 5.99844C1.63327 7.10469 1.34733 7.775 1.09733 8.58125C0.56608 10.2922 0.737955 11 0.869205 11.0156C1.15046 11.05 1.96452 9.72812 1.96452 9.72812C1.96452 10.4937 2.35827 11.4922 3.21139 12.2125C2.79889 12.3391 1.87233 12.6797 2.09264 13.0531C2.27077 13.3547 5.15827 13.2453 5.99108 13.1516C6.82389 13.2453 9.71139 13.3547 9.88952 13.0531C10.1098 12.6813 9.18171 12.3391 8.77077 12.2125C9.62389 11.4906 10.0176 10.4922 10.0176 9.72812C10.0176 9.72812 10.8317 11.05 11.113 11.0156C11.2458 10.9984 11.4176 10.2906 10.8864 8.58125Z" fill="#333333"/>
</svg>
