<svg width="27" height="30" viewBox="0 0 27 30" fill="none" xmlns="http://www.w3.org/2000/svg">
<path d="M13.7414 8.99414C13.3418 8.99414 13.0195 8.62793 13.0195 8.17383V5.56641C13.0195 5.1123 13.3418 4.74609 13.7414 4.74609C14.141 4.74609 14.4633 5.1123 14.4633 5.56641V8.17383C14.4633 8.62793 14.141 8.99414 13.7414 8.99414Z" fill="#FF416C"/>
<path d="M15.2754 13.4209H12.308C11.9187 13.4209 11.5604 13.2158 11.3283 12.8613C11.0963 12.5068 11.0267 12.0586 11.1375 11.6338L11.7666 9.23438C11.9213 8.65137 12.4008 8.24121 12.9397 8.24121H14.6464C15.1826 8.24121 15.6647 8.64844 15.8194 9.23438L16.4485 11.6338C16.5593 12.0586 16.4897 12.5068 16.2577 12.8613C16.0257 13.2158 15.6647 13.4209 15.2754 13.4209ZM12.6045 11.7803H14.979L14.4814 9.88477H13.1047L12.6045 11.7803Z" fill="#FF416C"/>
<path d="M17.0167 13.4355H10.4992C10.0996 13.4355 9.77734 13.0693 9.77734 12.6152C9.77734 12.1611 10.0996 11.7949 10.4992 11.7949H17.0167C17.4163 11.7949 17.7386 12.1611 17.7386 12.6152C17.7386 13.0693 17.4163 13.4355 17.0167 13.4355Z" fill="#FF416C"/>
<path d="M16.3925 23.1768H11.2233C10.7464 23.1768 10.3803 22.8018 10.455 22.3828L11.5946 15.9873C11.6539 15.6533 11.9813 15.4072 12.3628 15.4072H15.2529C15.6371 15.4072 15.9619 15.6533 16.0212 15.9873L17.1607 22.3828C17.2355 22.8018 16.8694 23.1768 16.3925 23.1768Z" fill="#FF416C"/>
<path d="M16.676 24.5508H10.9345C10.4705 24.5508 10.0296 24.3193 9.72797 23.9209C9.42633 23.5195 9.29485 22.9922 9.36704 22.4707L10.6329 13.3184C10.7541 12.4365 11.4141 11.7949 12.2004 11.7949H15.4102C16.1965 11.7949 16.8539 12.4365 16.9777 13.3184L18.2435 22.4707C18.3157 22.9922 18.1842 23.5195 17.8826 23.9209C17.5784 24.3193 17.1401 24.5508 16.676 24.5508ZM12.2004 13.4355C12.1308 13.4355 12.0715 13.4941 12.0586 13.5732L10.7927 22.7256C10.785 22.7871 10.8056 22.8311 10.8263 22.8545C10.8469 22.8809 10.8804 22.9102 10.9345 22.9102H16.676C16.7302 22.9102 16.7637 22.8779 16.7843 22.8545C16.8049 22.8281 16.8256 22.7842 16.8178 22.7256L15.552 13.5732C15.5416 13.4941 15.4823 13.4355 15.4102 13.4355H12.2004Z" fill="#FDC767"/>
<path d="M14.5567 18.9258H13.0614C12.6618 18.9258 12.3395 18.5596 12.3395 18.1055C12.3395 17.6514 12.6618 17.2852 13.0614 17.2852H14.5567C14.9563 17.2852 15.2786 17.6514 15.2786 18.1055C15.2786 18.5596 14.9537 18.9258 14.5567 18.9258ZM14.5567 21.5625H13.0614C12.6618 21.5625 12.3395 21.1963 12.3395 20.7422C12.3395 20.2881 12.6618 19.9219 13.0614 19.9219H14.5567C14.9563 19.9219 15.2786 20.2881 15.2786 20.7422C15.2786 21.1963 14.9537 21.5625 14.5567 21.5625ZM4.48914 4.19824C4.79852 4.19824 5.04859 4.48242 5.04859 4.83398C5.04859 5.18555 4.79852 5.46973 4.48914 5.46973C4.17977 5.46973 3.92969 5.18555 3.92969 4.83398C3.92969 4.48242 4.17977 4.19824 4.48914 4.19824ZM4.48914 3.02637C3.61258 3.02637 2.89844 3.83789 2.89844 4.83398C2.89844 5.83008 3.61258 6.6416 4.48914 6.6416C5.3657 6.6416 6.07984 5.83008 6.07984 4.83398C6.07984 3.83789 5.3657 3.02637 4.48914 3.02637ZM4.57937 26.833H4.57422C4.36023 26.8301 4.19008 26.6309 4.19266 26.3877L4.21844 24.3516C4.22102 24.1113 4.39375 23.918 4.60516 23.918H4.61031C4.8243 23.9209 4.99445 24.1201 4.99187 24.3633L4.96609 26.3994C4.96352 26.6397 4.79078 26.833 4.57937 26.833Z" fill="#FDC767"/>
<path d="M5.87773 25.3916V25.3975C5.87516 25.6407 5.69984 25.834 5.48586 25.8311L3.69406 25.8018C3.48266 25.7989 3.3125 25.6026 3.3125 25.3623V25.3565C3.31508 25.1133 3.49039 24.92 3.70437 24.9229L5.49617 24.9522C5.70758 24.9551 5.87773 25.1514 5.87773 25.3916Z" fill="#FDC767"/>
<path d="M22.2383 25.8281C22.2383 26.0682 22.3222 26.2985 22.4716 26.4682C22.621 26.638 22.8236 26.7334 23.0349 26.7334C23.2462 26.7334 23.4488 26.638 23.5982 26.4682C23.7476 26.2985 23.8316 26.0682 23.8316 25.8281C23.8316 25.588 23.7476 25.3578 23.5982 25.188C23.4488 25.0182 23.2462 24.9229 23.0349 24.9229C22.8236 24.9229 22.621 25.0182 22.4716 25.188C22.3222 25.3578 22.2383 25.588 22.2383 25.8281Z" fill="#FDC767"/>
<path d="M22.1641 11.0332C22.1641 11.194 22.2203 11.3483 22.3204 11.462C22.4205 11.5758 22.5562 11.6396 22.6977 11.6396C22.8393 11.6396 22.975 11.5758 23.0751 11.462C23.1752 11.3483 23.2314 11.194 23.2314 11.0332C23.2314 10.8724 23.1752 10.7181 23.0751 10.6044C22.975 10.4907 22.8393 10.4268 22.6977 10.4268C22.5562 10.4268 22.4205 10.4907 22.3204 10.6044C22.2203 10.7181 22.1641 10.8724 22.1641 11.0332Z" fill="#FDC767"/>
<path d="M22.7001 3.12598V4.02539V3.12598ZM22.7001 4.31836C22.5583 4.31836 22.4423 4.18652 22.4423 4.02539V3.12305C22.4423 2.96191 22.5583 2.83008 22.7001 2.83008C22.8419 2.83008 22.9579 2.96191 22.9579 3.12305V4.02539C22.9579 4.18945 22.8445 4.31836 22.7001 4.31836ZM22.7001 5.54297V6.44531V5.54297ZM22.7001 6.73828C22.5583 6.73828 22.4423 6.60645 22.4423 6.44531V5.54297C22.4423 5.38184 22.5583 5.25 22.7001 5.25C22.8419 5.25 22.9579 5.38184 22.9579 5.54297V6.44531C22.9579 6.60645 22.8445 6.73828 22.7001 6.73828ZM21.2409 4.78418H22.0323H21.2409ZM22.0323 5.07715H21.2383C21.0965 5.07715 20.9805 4.94531 20.9805 4.78418C20.9805 4.62305 21.0965 4.49121 21.2383 4.49121H22.0323C22.1741 4.49121 22.2902 4.62305 22.2902 4.78418C22.2902 4.94531 22.1767 5.07715 22.0323 5.07715ZM23.3678 4.78418H24.1619H23.3678ZM24.1619 5.07715H23.3678C23.226 5.07715 23.11 4.94531 23.11 4.78418C23.11 4.62305 23.226 4.49121 23.3678 4.49121H24.1619C24.3037 4.49121 24.4197 4.62305 24.4197 4.78418C24.4197 4.94531 24.3037 5.07715 24.1619 5.07715Z" fill="#FDC767"/>
<path d="M21.6686 5.95898L22.2281 5.32031L21.6686 5.95898ZM21.6686 6.25195C21.6016 6.25195 21.5371 6.22266 21.4856 6.16699C21.385 6.05273 21.385 5.86816 21.4856 5.75391L22.0476 5.11523C22.1481 5.00098 22.3106 5.00098 22.4111 5.11523C22.5117 5.22949 22.5117 5.41406 22.4111 5.52832L21.8491 6.16699C21.8001 6.22266 21.7331 6.25195 21.6686 6.25195Z" fill="#FDC767"/>
<path d="M23.1725 4.24805L23.7345 3.6123L23.1725 4.24805ZM23.1725 4.54102C23.1055 4.54102 23.041 4.51172 22.9895 4.45605C22.8889 4.3418 22.8889 4.15723 22.9895 4.04297L23.5515 3.4043C23.6521 3.29004 23.8145 3.29004 23.915 3.4043C24.0156 3.51855 24.0156 3.70312 23.915 3.81738L23.353 4.45605C23.3066 4.51172 23.2396 4.54102 23.1725 4.54102Z" fill="#FDC767"/>
<path d="M23.7345 5.95898L23.1725 5.32031L23.7345 5.95898ZM23.7345 6.25195C23.6675 6.25195 23.6031 6.22266 23.5515 6.16699L22.9895 5.52832C22.8889 5.41406 22.8889 5.22949 22.9895 5.11523C23.09 5.00098 23.2524 5.00098 23.353 5.11523L23.915 5.75391C24.0156 5.86816 24.0156 6.05273 23.915 6.16699C23.866 6.22266 23.8016 6.25195 23.7345 6.25195Z" fill="#FDC767"/>
<path d="M22.2306 4.24805L21.6712 3.6123L22.2306 4.24805ZM22.2306 4.54102C22.1636 4.54102 22.0992 4.51172 22.0476 4.45605L21.4856 3.81738C21.385 3.70312 21.385 3.51855 21.4856 3.4043C21.5861 3.29004 21.7485 3.29004 21.8491 3.4043L22.4111 4.04297C22.5117 4.15723 22.5117 4.3418 22.4111 4.45605C22.3621 4.51172 22.2977 4.54102 22.2306 4.54102Z" fill="#FDC767"/>
</svg>
