<svg width="28" height="29" viewBox="0 0 28 29" fill="none" xmlns="http://www.w3.org/2000/svg">
<path d="M20.7074 12.4392C20.7074 7.52823 16.8458 3.55464 12.0747 3.55464C7.30359 3.55464 3.44196 7.52823 3.44196 12.4392C3.44196 17.3363 7.30359 21.3098 12.0747 21.3098C16.8458 21.3098 20.7074 17.3363 20.7074 12.4392ZM25.0168 27.4941L19.756 22.0934L19.714 22.0374C17.6293 23.7863 14.9709 24.8357 12.0747 24.8357C5.40072 24.8357 0 19.2811 0 12.4392C0 5.58341 5.40072 0.0288086 12.0747 0.0288086C18.7346 0.0288086 24.1493 5.58344 24.1493 12.4392C24.1493 15.0277 23.3658 17.4342 22.0506 19.421L22.2185 19.5609L27.4793 24.9616C28.1508 25.6612 28.1508 26.7945 27.4793 27.4941C26.7937 28.1797 25.7024 28.1797 25.0168 27.4941Z" fill="#E5E5E5"/>
</svg>
