<svg width="27" height="30" viewBox="0 0 27 30" fill="none" xmlns="http://www.w3.org/2000/svg">
<path d="M20.368 11.2822C20.3784 11.168 20.3835 11.0479 20.3835 10.9307C20.3629 9.38086 19.2466 8.12402 17.8827 8.11523C17.1763 8.10937 16.5395 8.4375 16.0806 8.96484C15.4026 8.30566 14.4487 7.89551 13.3916 7.89551C12.3939 7.89551 11.4864 8.26172 10.8187 8.85644C10.3675 8.39062 9.7668 8.10937 9.1068 8.11523C7.74555 8.12695 6.6318 9.38379 6.61375 10.9307C6.61117 11.1006 6.62148 11.2676 6.64469 11.4316C6.68336 11.6953 6.58797 11.959 6.39977 12.1201C6.13164 12.3516 5.90477 12.6387 5.73461 12.9697C5.50258 13.4121 5.37109 13.9307 5.37109 14.4844C5.37109 15.7822 6.10328 16.8838 7.12164 17.2881C7.43102 17.4111 7.65273 17.7158 7.69398 18.085C8.01625 20.9473 9.40586 23.1064 11.0791 23.1504C11.5586 23.6807 12.3011 23.9941 13.4561 24.0146C14.4925 24.0322 15.1989 23.71 15.6784 23.1416C15.7429 23.1475 15.8073 23.1504 15.8718 23.1504C16.8644 23.1504 17.7616 22.4033 18.4009 21.2051C18.5247 20.9736 18.6381 20.7246 18.7412 20.4609C19.0094 19.7754 19.2027 18.9873 19.3033 18.1406C19.3497 17.7451 19.5895 17.4141 19.9195 17.2764C20.9198 16.8604 21.6339 15.7676 21.6339 14.4873C21.6339 13.5762 21.273 12.7617 20.7058 12.2168C20.4583 11.9854 20.3345 11.6367 20.368 11.2822Z" fill="#FDC767"/>
<path d="M13.5315 24.668H13.4412C12.3017 24.6475 11.4484 24.3604 10.8373 23.7891C9.935 23.6836 9.08164 23.0801 8.41391 22.0664C7.74875 21.0586 7.28727 19.6729 7.11711 18.167C7.10422 18.0469 7.02945 17.9473 6.92633 17.9062C5.64758 17.3994 4.78906 16.0225 4.78906 14.4844C4.78906 13.834 4.94375 13.1953 5.23508 12.6357C5.44648 12.2314 5.71977 11.8828 6.04719 11.5986C6.06523 11.5811 6.07555 11.5576 6.07297 11.5342C6.04461 11.332 6.03172 11.127 6.0343 10.9189C6.04719 9.99902 6.37203 9.13477 6.94953 8.48145C7.52703 7.82812 8.29016 7.46484 9.09969 7.45898C9.72101 7.45313 10.3243 7.6582 10.8348 8.04199C11.5721 7.52051 12.4616 7.23633 13.3897 7.23633C14.372 7.23633 15.3001 7.54688 16.0555 8.12109C16.584 7.68457 17.2182 7.45312 17.8834 7.45605C18.6955 7.46191 19.4612 7.82227 20.0387 8.47559C20.6187 9.12891 20.9436 9.99609 20.9565 10.916C20.9591 11.0596 20.9513 11.2061 20.9384 11.3496C20.9255 11.4873 20.972 11.6191 21.0648 11.71C21.7866 12.4014 22.1991 13.4121 22.1991 14.4814C22.1991 15.2373 21.9955 15.9639 21.6113 16.5791C21.2349 17.1797 20.7141 17.6309 20.1083 17.8857C19.9768 17.9414 19.8814 18.0703 19.8634 18.2227C19.6855 19.7314 19.2162 21.1143 18.5408 22.1133C17.8112 23.1914 16.8727 23.792 15.8905 23.8008C15.3052 24.3779 14.5138 24.668 13.5315 24.668ZM9.12547 8.76855H9.11C8.06586 8.77734 7.20219 9.75293 7.18672 10.9395C7.18414 11.0684 7.19445 11.2002 7.2125 11.3262C7.28469 11.8271 7.1068 12.3311 6.74844 12.6416C6.53703 12.8232 6.3643 13.0459 6.22766 13.3037C6.04203 13.6582 5.94406 14.0654 5.94406 14.4844C5.94406 15.4688 6.4932 16.3477 7.30789 16.6699C7.82867 16.875 8.19219 17.3877 8.2618 18C8.40617 19.2832 8.78773 20.4492 9.33687 21.2783C9.69523 21.8203 10.2908 22.4707 11.0874 22.4912L11.3143 22.4971L11.4767 22.6787C11.8712 23.1182 12.5209 23.3379 13.4593 23.3555C14.2766 23.3701 14.8644 23.1504 15.2588 22.6846L15.4496 22.459L15.7229 22.4854C15.7719 22.4912 15.8209 22.4912 15.8673 22.4912C16.6691 22.4912 17.2672 21.8525 17.6307 21.3164C18.185 20.4961 18.5743 19.333 18.7264 18.0498C18.8012 17.4141 19.1802 16.8809 19.7164 16.6553C20.5156 16.3213 21.0519 15.4482 21.0519 14.4814C21.0519 13.7988 20.7889 13.1514 20.3274 12.7119C19.9407 12.3428 19.7422 11.7803 19.7963 11.2119C19.8041 11.1211 19.8092 11.0303 19.8066 10.9395C19.7912 9.75 18.9249 8.77441 17.8782 8.76855H17.8679C17.3471 8.76855 16.8573 9 16.4886 9.42188L16.1122 9.85547L15.7048 9.45996C15.1067 8.87988 14.2637 8.54883 13.3897 8.54883C12.5544 8.54883 11.768 8.8418 11.1725 9.37207L10.7909 9.71191L10.43 9.33984C10.0716 8.9707 9.61016 8.76855 9.12547 8.76855Z" fill="#FF416C"/>
<path d="M18.8722 14.2236C18.8722 13.0781 18.323 12.0762 17.5084 11.543C17.3073 11.4111 17.1655 11.1826 17.1294 10.9219C16.8896 9.21387 15.3247 7.89551 13.4298 7.89551C11.5271 7.89551 9.95703 9.22559 9.72758 10.9424C9.69406 11.2031 9.55484 11.4287 9.35633 11.5635C8.55711 12.1025 8.02344 13.0928 8.02344 14.2236C8.02344 15.5361 8.74273 16.6582 9.75852 17.1064C10.0602 17.2383 10.2587 17.5664 10.2587 17.9326V17.9473C10.2587 21.2988 10.0421 23.9531 13.4891 24.0146C16.4771 24.0674 16.7195 21.2988 16.7195 17.9473V17.8945C16.7169 17.5342 16.9102 17.2148 17.2016 17.0771C18.1838 16.6084 18.8722 15.5068 18.8722 14.2236Z" fill="white"/>
<path d="M13.5709 24.668H13.4807C11.7611 24.6387 10.6654 23.9853 10.1266 22.6699C9.67023 21.5537 9.67539 20.1416 9.68055 18.5039C9.68055 18.3193 9.68313 18.1348 9.68313 17.9443V17.9297C9.68313 17.8359 9.63156 17.751 9.54906 17.7158C8.93547 17.4463 8.41211 16.9775 8.0357 16.3623C7.64899 15.7324 7.44531 14.9912 7.44531 14.2207C7.44531 13.5586 7.6 12.9082 7.89133 12.3398C8.17234 11.7891 8.57711 11.3232 9.0618 10.998C9.11594 10.9629 9.14945 10.9043 9.15719 10.8428C9.29125 9.83203 9.80688 8.90918 10.6087 8.24414C11.3898 7.59668 12.3902 7.23926 13.4266 7.23926C14.4578 7.23926 15.4555 7.59375 16.2367 8.23828C17.0359 8.89746 17.5541 9.81445 17.6959 10.8193C17.7063 10.8838 17.7398 10.9395 17.7939 10.9746C18.8123 11.6426 19.4465 12.8877 19.4465 14.2236C19.4465 15.7383 18.6524 17.0947 17.4227 17.6807C17.3453 17.7187 17.2938 17.8008 17.2963 17.8916V17.9473C17.2963 19.0137 17.2757 20.1357 17.1159 21.126C16.9354 22.248 16.5951 23.0771 16.0743 23.6602C15.4736 24.3281 14.6331 24.668 13.5709 24.668ZM13.4291 8.54883C11.8333 8.54883 10.4875 9.62109 10.2967 11.0391C10.2374 11.4902 10.0002 11.8857 9.64961 12.123C9.0025 12.5596 8.59773 13.3652 8.59773 14.2207C8.59773 15.2344 9.13399 16.125 9.96672 16.4941C10.4952 16.7285 10.8355 17.291 10.8355 17.9326V17.9443C10.8355 18.1348 10.8355 18.3223 10.833 18.5068C10.8278 19.9863 10.8227 21.2637 11.1707 22.1133C11.4002 22.6758 11.8745 23.3262 13.4962 23.3525C14.2902 23.3672 14.8703 23.1592 15.2622 22.7197C16.0743 21.8115 16.1413 19.8604 16.1413 17.9385V17.8887C16.1388 17.2646 16.4662 16.7051 16.9766 16.4619C17.7759 16.0811 18.2941 15.1992 18.2941 14.2119C18.2941 13.3418 17.8816 12.5332 17.219 12.0996C16.8632 11.8652 16.6209 11.4697 16.559 11.0127C16.3605 9.6123 15.0173 8.54883 13.4291 8.54883Z" fill="#FF416C"/>
<path d="M13.4916 15.123C13.1745 15.123 12.9141 14.8301 12.9141 14.4668V13.3535C12.9141 12.9932 13.1719 12.6973 13.4916 12.6973C13.8087 12.6973 14.0691 12.9902 14.0691 13.3535V14.4668C14.0665 14.8301 13.8087 15.123 13.4916 15.123ZM13.4916 24.668C13.1745 24.668 12.9141 24.375 12.9141 24.0117V16.5732C12.9141 16.2129 13.1719 15.917 13.4916 15.917C13.8087 15.917 14.0691 16.21 14.0691 16.5732V24.0117C14.0665 24.375 13.8087 24.668 13.4916 24.668Z" fill="#FDC767"/>
<path d="M13.7376 19.1982C13.5185 19.1982 13.3097 19.0547 13.2117 18.8144C13.0802 18.4863 13.2091 18.0967 13.4979 17.9472L14.9287 17.209C15.2175 17.0595 15.5604 17.206 15.6919 17.5342C15.8233 17.8623 15.6944 18.2519 15.4057 18.4013L13.9748 19.1396C13.9001 19.1777 13.8176 19.1982 13.7376 19.1982Z" fill="#FDC767"/>
<path d="M13.3612 19.1982C13.2813 19.1982 13.2014 19.1806 13.124 19.1396L11.6932 18.4013C11.4044 18.2519 11.2755 17.8623 11.407 17.5342C11.5385 17.206 11.8814 17.0595 12.1701 17.209L13.601 17.9472C13.8897 18.0967 14.0187 18.4863 13.8872 18.8144C13.7892 19.0547 13.5804 19.1982 13.3612 19.1982ZM13.7376 21.7353C13.5185 21.7353 13.3097 21.5918 13.2117 21.3515C13.0802 21.0234 13.2091 20.6338 13.4979 20.4844L14.9287 19.7461C15.2175 19.5967 15.5604 19.7431 15.6919 20.0713C15.8233 20.3994 15.6944 20.789 15.4057 20.9385L13.9748 21.6767C13.9001 21.7178 13.8176 21.7353 13.7376 21.7353Z" fill="#FDC767"/>
<path d="M13.3628 21.7354C13.2829 21.7354 13.203 21.7178 13.1257 21.6768L11.6948 20.9385C11.406 20.7891 11.2771 20.3994 11.4086 20.0713C11.5401 19.7432 11.883 19.5967 12.1717 19.7461L13.6026 20.4844C13.8914 20.6338 14.0203 21.0234 13.8888 21.3516C13.7908 21.5947 13.582 21.7354 13.3628 21.7354ZM23.1984 4.29492C23.5078 4.29492 23.7578 4.5791 23.7578 4.93066C23.7578 5.28223 23.5078 5.56641 23.1984 5.56641C22.889 5.56641 22.6389 5.28223 22.6389 4.93066C22.6389 4.5791 22.889 4.29492 23.1984 4.29492ZM23.1984 3.12305C22.3218 3.12305 21.6077 3.93457 21.6077 4.93066C21.6077 5.92676 22.3218 6.73828 23.1984 6.73828C24.0749 6.73828 24.7891 5.92676 24.7891 4.93066C24.7891 3.93457 24.0749 3.12305 23.1984 3.12305ZM6.85823 26.8066H6.85308L5.06128 26.7773C4.84729 26.7744 4.67714 26.5752 4.67972 26.332C4.68229 26.0918 4.85503 25.8984 5.06644 25.8984H5.07159L6.86339 25.9277C7.07737 25.9307 7.24753 26.1299 7.24495 26.373C7.24237 26.6133 7.06964 26.8066 6.85823 26.8066Z" fill="#FDC767"/>
<path d="M5.94925 27.8086H5.94409C5.73011 27.8057 5.55995 27.6064 5.56253 27.3633L5.58831 25.3271C5.59089 25.0869 5.76362 24.8936 5.97503 24.8936H5.98018C6.19417 24.8965 6.36433 25.0957 6.36175 25.3389L6.33597 27.375C6.33081 27.6182 6.15808 27.8086 5.94925 27.8086Z" fill="#FDC767"/>
<path d="M21.8672 25.0195C21.8672 25.2596 21.9511 25.4899 22.1005 25.6597C22.2499 25.8294 22.4525 25.9248 22.6638 25.9248C22.8751 25.9248 23.0777 25.8294 23.2271 25.6597C23.3765 25.4899 23.4605 25.2596 23.4605 25.0195C23.4605 24.7794 23.3765 24.5492 23.2271 24.3794C23.0777 24.2096 22.8751 24.1143 22.6638 24.1143C22.4525 24.1143 22.2499 24.2096 22.1005 24.3794C21.9511 24.5492 21.8672 24.7794 21.8672 25.0195Z" fill="#FDC767"/>
<path d="M12.6758 3.23438C12.6758 3.39521 12.732 3.54947 12.8321 3.6632C12.9322 3.77693 13.0679 3.84082 13.2095 3.84082C13.351 3.84082 13.4867 3.77693 13.5868 3.6632C13.6869 3.54947 13.7431 3.39521 13.7431 3.23438C13.7431 3.15474 13.7293 3.07588 13.7025 3.0023C13.6757 2.92872 13.6364 2.86187 13.5868 2.80555C13.5373 2.74924 13.4784 2.70457 13.4137 2.67409C13.3489 2.64362 13.2795 2.62793 13.2095 2.62793C13.1394 2.62793 13.07 2.64362 13.0052 2.67409C12.9405 2.70457 12.8816 2.74924 12.8321 2.80555C12.7825 2.86187 12.7432 2.92872 12.7164 3.0023C12.6896 3.07588 12.6758 3.15474 12.6758 3.23438Z" fill="#FDC767"/>
<path d="M3.385 3.41016C3.2432 3.41016 3.12719 3.27832 3.12719 3.11719V2.21484C3.12719 2.05371 3.2432 1.92188 3.385 1.92188C3.5268 1.92188 3.64281 2.05371 3.64281 2.21484V3.11719C3.64281 3.27832 3.52938 3.41016 3.385 3.41016ZM3.385 5.82715C3.2432 5.82715 3.12719 5.69531 3.12719 5.53418V4.63184C3.12719 4.4707 3.2432 4.33887 3.385 4.33887C3.5268 4.33887 3.64281 4.4707 3.64281 4.63184V5.53418C3.64281 5.69531 3.52938 5.82715 3.385 5.82715ZM2.71727 4.16895H1.92578C1.78398 4.16895 1.66797 4.03711 1.66797 3.87598C1.66797 3.71484 1.78398 3.58301 1.92578 3.58301H2.71984C2.86164 3.58301 2.97766 3.71484 2.97766 3.87598C2.97766 4.03711 2.86164 4.16895 2.71727 4.16895Z" fill="#FDC767"/>
<path d="M4.05469 3.87598H4.84875H4.05469ZM4.84875 4.16895H4.05469C3.91289 4.16895 3.79688 4.03711 3.79688 3.87598C3.79688 3.71484 3.91289 3.58301 4.05469 3.58301H4.84875C4.99055 3.58301 5.10656 3.71484 5.10656 3.87598C5.10656 4.03711 4.99055 4.16895 4.84875 4.16895Z" fill="#FDC767"/>
<path d="M2.35221 5.04785L2.91166 4.41211L2.35221 5.04785ZM2.35221 5.34082C2.28518 5.34082 2.22072 5.31152 2.16916 5.25586C2.06861 5.1416 2.06861 4.95703 2.16916 4.84277L2.73119 4.2041C2.83174 4.08984 2.99416 4.08984 3.09471 4.2041C3.19525 4.31836 3.19525 4.50293 3.09471 4.61719L2.53268 5.25586C2.48369 5.31152 2.41666 5.34082 2.35221 5.34082Z" fill="#FDC767"/>
<path d="M3.85611 3.33691L4.41814 2.70117L3.85611 3.33691ZM3.85611 3.62988C3.78908 3.62988 3.72463 3.60059 3.67307 3.54492C3.57252 3.43066 3.57252 3.24609 3.67307 3.13184L4.2351 2.49316C4.33564 2.37891 4.49807 2.37891 4.59861 2.49316C4.69916 2.60742 4.69916 2.79199 4.59861 2.90625L4.03916 3.54492C3.99018 3.60352 3.92314 3.62988 3.85611 3.62988Z" fill="#FDC767"/>
<path d="M4.41814 5.04785L3.85611 4.41211L4.41814 5.04785ZM4.41814 5.34082C4.35111 5.34082 4.28666 5.31152 4.2351 5.25586L3.67307 4.61719C3.57252 4.50293 3.57252 4.31836 3.67307 4.2041C3.77361 4.08984 3.93604 4.08984 4.03658 4.2041L4.59861 4.84277C4.69916 4.95703 4.69916 5.1416 4.59861 5.25586C4.54963 5.31152 4.48517 5.34082 4.41814 5.34082Z" fill="#FDC767"/>
<path d="M2.91166 3.33691L2.35221 2.70117L2.91166 3.33691ZM2.91166 3.62988C2.84463 3.62988 2.78018 3.60059 2.72861 3.54492L2.16916 2.90918C2.06861 2.79492 2.06861 2.61035 2.16916 2.49609C2.26971 2.38184 2.43213 2.38184 2.53268 2.49609L3.09471 3.13477C3.19525 3.24902 3.19525 3.43359 3.09471 3.54785C3.04314 3.60352 2.97869 3.62988 2.91166 3.62988Z" fill="#FDC767"/>
</svg>
