<svg width="14" height="12" viewBox="0 0 14 12" fill="none" xmlns="http://www.w3.org/2000/svg">
<path d="M9.78281 3.89683C9.875 3.89683 9.96719 3.89995 10.0578 3.90464C9.67656 1.8937 7.58437 0.356201 5.05937 0.356201C2.26562 0.356201 0 2.24058 0 4.56558C0 5.83276 0.68125 6.97495 1.74844 7.74683C1.79245 7.7779 1.82835 7.81911 1.8531 7.86697C1.87784 7.91483 1.89072 7.96795 1.89062 8.02183C1.89062 8.05933 1.88281 8.0937 1.87344 8.12964C1.7875 8.44683 1.65156 8.95464 1.64531 8.97808C1.63438 9.0187 1.61875 9.05933 1.61875 9.10151C1.61875 9.1937 1.69375 9.27026 1.7875 9.27026C1.82344 9.27026 1.85313 9.2562 1.88438 9.23901L2.99219 8.59995C3.075 8.55151 3.16406 8.52183 3.26094 8.52183C3.31094 8.52183 3.36094 8.52964 3.40938 8.5437C3.92656 8.69214 4.48438 8.77495 5.06094 8.77495C5.15469 8.77495 5.24688 8.77339 5.33906 8.7687C5.22813 8.44058 5.16875 8.09526 5.16875 7.73745C5.16875 5.61558 7.23437 3.89683 9.78281 3.89683ZM6.74687 2.54526C7.11875 2.54526 7.42188 2.84683 7.42188 3.2187C7.42188 3.59058 7.12031 3.89214 6.74687 3.89214C6.375 3.89214 6.07188 3.59058 6.07188 3.2187C6.07188 2.84683 6.375 2.54526 6.74687 2.54526ZM3.37344 3.89214C3.00156 3.89214 2.69844 3.59058 2.69844 3.2187C2.69844 2.84683 3 2.54526 3.37344 2.54526C3.74687 2.54526 4.04844 2.84683 4.04844 3.2187C4.04844 3.59058 3.74531 3.89214 3.37344 3.89214ZM12.5422 10.3859C13.4313 9.74214 13.9984 8.79214 13.9984 7.73433C13.9984 5.79683 12.1109 4.22651 9.78125 4.22651C7.45312 4.22651 5.56406 5.79683 5.56406 7.73433C5.56406 9.67183 7.45156 11.2421 9.78125 11.2421C10.2625 11.2421 10.7281 11.1734 11.1578 11.05C11.1984 11.0375 11.2391 11.0312 11.2812 11.0312C11.3625 11.0312 11.4359 11.0562 11.5047 11.0953L12.4281 11.6265C12.4547 11.6421 12.4797 11.6531 12.5094 11.6531C12.5279 11.6532 12.5463 11.6497 12.5634 11.6427C12.5806 11.6358 12.5962 11.6255 12.6094 11.6125C12.6224 11.5993 12.6327 11.5837 12.6397 11.5665C12.6466 11.5493 12.6501 11.531 12.65 11.5125C12.65 11.4781 12.6359 11.4437 12.6281 11.4093C12.6234 11.3906 12.5094 10.9671 12.4375 10.7015C12.4297 10.6718 12.4234 10.6421 12.4234 10.6125C12.425 10.5203 12.4719 10.4375 12.5422 10.3859ZM8.37813 7.17495C8.06719 7.17495 7.81563 6.92339 7.81563 6.61401C7.81563 6.30464 8.06719 6.05308 8.37813 6.05308C8.68906 6.05308 8.94063 6.30464 8.94063 6.61401C8.94063 6.92339 8.6875 7.17495 8.37813 7.17495ZM11.1891 7.17495C10.8781 7.17495 10.6266 6.92339 10.6266 6.61401C10.6266 6.30464 10.8781 6.05308 11.1891 6.05308C11.5 6.05308 11.7516 6.30464 11.7516 6.61401C11.7508 6.76283 11.6913 6.90531 11.5859 7.01039C11.4805 7.11547 11.3379 7.17462 11.1891 7.17495Z" fill="#333333"/>
</svg>
