<svg width="14" height="12" viewBox="0 0 14 12" fill="none" xmlns="http://www.w3.org/2000/svg">
<path d="M6.14531 6.4844C5.08125 6.20784 3.87969 6.73753 3.41719 7.67503C2.94688 8.63128 3.40156 9.69221 4.47656 10.0391C5.58906 10.3985 6.90156 9.84846 7.35781 8.81565C7.80625 7.80628 7.24531 6.76878 6.14531 6.4844ZM5.33281 8.92503C5.11719 9.27034 4.65312 9.42034 4.30469 9.26253C3.96094 9.10628 3.85938 8.70471 4.07656 8.36878C4.29063 8.0344 4.7375 7.8844 5.08281 8.02972C5.43281 8.17815 5.54531 8.57659 5.33281 8.92503ZM6.04375 8.01097C5.96562 8.14534 5.79219 8.2094 5.65781 8.15315C5.525 8.09846 5.48281 7.94846 5.55781 7.81721C5.63594 7.68597 5.80156 7.62347 5.93437 7.67503C6.07031 7.72503 6.11875 7.87659 6.04375 8.01097ZM11.2703 4.92972C11.5047 5.00471 11.7547 4.87659 11.8313 4.64378C12.0156 4.0719 11.9 3.41878 11.4688 2.94065C11.264 2.71379 11.0032 2.54482 10.7124 2.45074C10.4217 2.35666 10.1113 2.34079 9.8125 2.40472C9.75533 2.41687 9.70111 2.44018 9.65296 2.47331C9.6048 2.50645 9.56366 2.54875 9.53187 2.59781C9.50009 2.64686 9.47829 2.7017 9.46773 2.75919C9.45716 2.81668 9.45804 2.87569 9.47031 2.93284C9.48253 2.98993 9.5059 3.04405 9.53907 3.0921C9.57225 3.14014 9.61459 3.18116 9.66365 3.2128C9.71272 3.24445 9.76755 3.2661 9.825 3.27651C9.88245 3.28692 9.94139 3.28588 9.99844 3.27347C10.2859 3.21253 10.5969 3.30159 10.8094 3.5344C10.9097 3.64527 10.9789 3.78073 11.0099 3.92701C11.0409 4.07329 11.0326 4.22517 10.9859 4.36722C10.9675 4.42281 10.9603 4.48151 10.9646 4.53992C10.9689 4.59833 10.9848 4.65531 11.0112 4.70758C11.0376 4.75985 11.0741 4.80638 11.1186 4.8445C11.1631 4.88263 11.2146 4.91158 11.2703 4.92972ZM12.8297 1.71097C11.9437 0.728153 10.6359 0.353153 9.42813 0.609403C9.36164 0.623458 9.29859 0.650526 9.2426 0.689047C9.18662 0.727568 9.13881 0.776783 9.10192 0.833856C9.06503 0.89093 9.0398 0.954737 9.02767 1.0216C9.01554 1.08847 9.01676 1.15707 9.03125 1.22347C9.0454 1.28995 9.0725 1.353 9.11102 1.40901C9.14954 1.46502 9.19872 1.5129 9.25574 1.5499C9.31276 1.5869 9.37652 1.6123 9.44336 1.62466C9.51021 1.63701 9.57883 1.63607 9.64531 1.6219C10.5047 1.43909 11.4328 1.70628 12.0641 2.40472C12.6937 3.10315 12.8641 4.05628 12.5953 4.89065C12.5078 5.16253 12.6562 5.45315 12.9281 5.54222C13.2 5.62972 13.4906 5.48128 13.5781 5.21097V5.2094C13.9547 4.03128 13.7172 2.69222 12.8297 1.71097ZM10.3906 5.7969C10.2 5.74065 10.0703 5.70159 10.1703 5.45159C10.3859 4.9094 10.4078 4.44065 10.175 4.10784C9.7375 3.48128 8.5375 3.51565 7.1625 4.09065C7.1625 4.09065 6.73125 4.27972 6.84062 3.93753C7.05156 3.25784 7.02031 2.68909 6.69063 2.3594C5.94531 1.61253 3.9625 2.38753 2.26094 4.08753C0.989062 5.36097 0.25 6.71097 0.25 7.87815C0.25 10.111 3.1125 11.4688 5.91406 11.4688C9.58594 11.4688 12.0281 9.33597 12.0281 7.64065C12.0281 6.61722 11.1656 6.03753 10.3906 5.7969ZM5.92188 10.6688C3.6875 10.8891 1.75781 9.87971 1.6125 8.41096C1.46719 6.94378 3.1625 5.57503 5.39687 5.35472C7.63125 5.13284 9.56094 6.14378 9.70625 7.61096C9.85 9.07815 8.15625 10.4469 5.92188 10.6688Z" fill="#333333"/>
</svg>
