<svg width="284" height="52" viewBox="0 0 284 52" fill="none" xmlns="http://www.w3.org/2000/svg">
<path d="M9.58262 3.0268C9.58262 3.54905 9.76914 3.99669 10.1422 4.36972C10.5152 4.74275 10.9628 4.92926 11.4851 4.92926H35.8813C36.4036 4.92926 36.8512 5.13443 37.2242 5.54476C37.5973 5.91779 37.7838 6.36543 37.7838 6.88767V8.17463C37.7838 8.69688 37.5973 9.16317 37.2242 9.5735C36.8512 9.94653 36.4036 10.133 35.8813 10.133H11.4851C10.9628 10.133 10.5152 10.3196 10.1422 10.6926C9.76914 11.0656 9.58262 11.5319 9.58262 12.0915V45.4964C9.58262 46.056 9.45206 46.6715 9.19094 47.3429C8.96712 48.0144 8.66869 48.5553 8.29566 48.9656L7.17657 50.3085C6.87814 50.7188 6.41185 51.0732 5.7777 51.3716C5.14355 51.6701 4.56535 51.8193 4.04311 51.8193H2.75615C2.1966 51.8193 1.73031 51.6141 1.35728 51.2038C0.98425 50.8308 0.797734 50.3831 0.797734 49.8609V48.6299C0.797734 48.0703 0.98425 47.604 1.35728 47.231C1.73031 46.858 2.1966 46.6715 2.75615 46.6715C3.27839 46.6715 3.72603 46.4849 4.09906 46.1119C4.47209 45.7389 4.65861 45.2726 4.65861 44.713V12.0915C4.65861 11.5319 4.47209 11.0656 4.09906 10.6926C3.72603 10.3196 3.27839 10.133 2.75615 10.133H2.64424C2.122 10.133 1.67436 9.94653 1.30133 9.5735C0.928295 9.16317 0.74178 8.69688 0.74178 8.17463V6.88767C0.74178 6.36543 0.928295 5.91779 1.30133 5.54476C1.67436 5.13443 2.122 4.92926 2.64424 4.92926H2.75615C3.27839 4.92926 3.72603 4.74275 4.09906 4.36972C4.47209 3.99669 4.65861 3.54905 4.65861 3.0268V2.35535C4.65861 1.8331 4.84512 1.38547 5.21815 1.01244C5.62849 0.639404 6.09478 0.452889 6.61702 0.452889H7.68016C8.1651 0.452889 8.59409 0.639404 8.96712 1.01244C9.37745 1.38547 9.58262 1.8331 9.58262 2.35535V3.0268ZM11.3732 18.2465C11.3732 17.7242 11.5597 17.2766 11.9327 16.9036C12.3431 16.5305 12.8093 16.344 13.3316 16.344H35.8813C36.4036 16.344 36.8512 16.5305 37.2242 16.9036C37.6346 17.2766 37.8397 17.7242 37.8397 18.2465V25.017C37.8397 25.6138 37.7092 26.2666 37.4481 26.9754C37.2242 27.6469 36.9445 28.1505 36.6087 28.4862L29.5025 37.8866C29.1668 38.3342 28.9989 38.8751 28.9989 39.5093C28.9989 40.0688 29.1481 40.591 29.4465 41.076L32.3002 45.0488C32.5986 45.4591 33.0463 45.8321 33.6431 46.1679C34.2773 46.5036 34.8555 46.6715 35.3777 46.6715H35.8813C36.4036 46.6715 36.8512 46.858 37.2242 47.231C37.5973 47.604 37.7838 48.0703 37.7838 48.6299V49.8609C37.7838 50.3831 37.5973 50.8308 37.2242 51.2038C36.8512 51.6141 36.4036 51.8193 35.8813 51.8193H32.6919C32.1697 51.8193 31.5915 51.6514 30.9573 51.3157C30.3605 50.98 29.9128 50.6069 29.6144 50.1966L26.1452 45.3285C25.8841 44.8809 25.5111 44.6571 25.0261 44.6571C24.5785 44.6571 24.1868 44.8809 23.8511 45.3285L20.0461 50.2526C19.7477 50.6629 19.2814 51.0173 18.6473 51.3157C18.0504 51.6514 17.4722 51.8193 16.9127 51.8193H12.828C12.3057 51.8193 11.8395 51.6141 11.4291 51.2038C11.0561 50.8308 10.8696 50.3831 10.8696 49.8609V48.6299C10.8696 48.0703 11.0561 47.604 11.4291 47.231C11.8395 46.858 12.3057 46.6715 12.828 46.6715H14.4507C14.9356 46.6715 15.4765 46.5222 16.0734 46.2238C16.6702 45.9254 17.1738 45.571 17.5841 45.1607L20.7736 40.9081C21.1093 40.4605 21.2771 39.9382 21.2771 39.3414C21.2771 38.7818 21.1279 38.2596 20.8295 37.7747L17.0246 32.3471C16.6889 31.8994 16.2226 31.5264 15.6257 31.228C15.0289 30.8922 14.4693 30.7244 13.9471 30.7244H13.8911C13.3316 30.7244 12.8653 30.5379 12.4923 30.1648C12.1192 29.7918 11.9327 29.3255 11.9327 28.766V27.535C11.9327 27.0127 12.1192 26.5651 12.4923 26.192C12.8653 25.7817 13.3316 25.5765 13.8911 25.5765H16.521C17.0805 25.5765 17.6587 25.7444 18.2556 26.0801C18.8897 26.3786 19.356 26.7516 19.6545 27.1992L24.0749 33.4662C24.4479 33.9511 24.8582 34.1936 25.3059 34.1936C25.7535 34.1936 26.1079 33.9697 26.369 33.5221L31.4609 26.8075C31.8339 26.3599 32.1324 25.8004 32.3562 25.1289C32.58 24.4574 32.6919 23.8419 32.6919 23.2824C32.6919 22.7975 32.4867 22.3685 32.0764 21.9954C31.7034 21.6224 31.2744 21.4359 30.7894 21.4359H13.3316C12.8093 21.4359 12.3431 21.2494 11.9327 20.8763C11.5597 20.5033 11.3732 20.037 11.3732 19.4775V18.2465ZM50.5218 46.6155C50.8948 46.6155 51.1746 46.429 51.3611 46.056C51.5849 45.6829 51.6968 45.2166 51.6968 44.6571V38.0544C51.6968 37.4949 51.529 37.0286 51.1932 36.6556C50.8575 36.2825 50.4285 36.096 49.9063 36.096C49.4213 36.096 49.011 36.2825 48.6753 36.6556C48.3768 37.0286 48.2276 37.4949 48.2276 38.0544V49.8609C48.2276 50.3831 48.0225 50.8308 47.6121 51.2038C47.2391 51.6141 46.7915 51.8193 46.2692 51.8193H45.4299C44.9077 51.8193 44.46 51.6141 44.087 51.2038C43.714 50.8308 43.5274 50.3831 43.5274 49.8609V2.35535C43.5274 1.8331 43.714 1.38547 44.087 1.01244C44.46 0.639404 44.9077 0.452889 45.4299 0.452889H54.4946C55.0168 0.452889 55.4644 0.639404 55.8375 1.01244C56.2478 1.38547 56.453 1.8331 56.453 2.35535V45.7202C56.453 46.2425 56.3224 46.8393 56.0613 47.5108C55.8002 48.1822 55.4831 48.7231 55.1101 49.1335L53.991 50.3085C53.6552 50.7188 53.1889 51.0732 52.5921 51.3716C52.0326 51.6701 51.529 51.8193 51.0813 51.8193C50.5964 51.8193 50.186 51.6141 49.8503 51.2038C49.5519 50.8308 49.4027 50.3831 49.4027 49.8609V48.5739C49.4027 48.0144 49.5146 47.5481 49.7384 47.175C49.9622 46.802 50.2233 46.6155 50.5218 46.6155ZM61.2091 0.452889C61.7687 0.452889 62.235 0.527494 62.608 0.676705C63.0183 0.825917 63.2235 1.03109 63.2235 1.29221C63.2235 1.51603 63.41 1.72119 63.783 1.90771C64.1561 2.05692 64.6037 2.13153 65.1259 2.13153H66.245C66.7673 2.13153 67.2149 2.33669 67.588 2.74703C67.9983 3.12006 68.2035 3.5677 68.2035 4.08994V4.31376C68.2035 4.836 67.9983 5.30229 67.588 5.71263C67.2149 6.12296 66.7673 6.32813 66.245 6.32813H64.1188C63.5592 6.32813 62.9251 6.21622 62.2163 5.9924C61.5448 5.73128 61.004 5.43285 60.5936 5.09713L59.6424 4.36972C59.1574 4.07129 58.7658 3.67961 58.4673 3.19467C58.1689 2.70973 58.0197 2.26209 58.0197 1.85175C58.0197 1.47872 58.2062 1.16165 58.5792 0.900524C58.9523 0.6021 59.4186 0.452889 59.9781 0.452889H61.2091ZM75.5895 1.29221C75.5895 1.03109 75.776 0.825917 76.149 0.676705C76.5594 0.527494 77.0443 0.452889 77.6038 0.452889H78.8348C79.3944 0.452889 79.8607 0.6021 80.2337 0.900524C80.6067 1.16165 80.7933 1.47872 80.7933 1.85175C80.7933 2.26209 80.644 2.70973 80.3456 3.19467C80.0472 3.67961 79.6742 4.07129 79.2265 4.36972L78.2193 5.09713C77.809 5.47016 77.2495 5.76858 76.5407 5.9924C75.8692 6.21622 75.2537 6.32813 74.6942 6.32813H72.5679C72.0457 6.32813 71.598 6.12296 71.225 5.71263C70.852 5.30229 70.6655 4.836 70.6655 4.31376V4.08994C70.6655 3.5677 70.852 3.12006 71.225 2.74703C71.598 2.33669 72.0457 2.13153 72.5679 2.13153H73.6311C74.1906 2.13153 74.6569 2.05692 75.0299 1.90771C75.403 1.72119 75.5895 1.51603 75.5895 1.29221ZM48.2276 14.1058C48.2276 14.6281 48.3768 15.0944 48.6753 15.5047C49.011 15.8777 49.4213 16.0642 49.9063 16.0642C50.4285 16.0642 50.8575 15.8777 51.1932 15.5047C51.529 15.1317 51.6968 14.6654 51.6968 14.1058V7.55913C51.6968 6.99959 51.529 6.5333 51.1932 6.16027C50.8575 5.78723 50.4285 5.60072 49.9063 5.60072C49.4213 5.60072 49.011 5.80588 48.6753 6.21622C48.3768 6.58925 48.2276 7.03689 48.2276 7.55913V14.1058ZM58.0197 34.6972C58.0197 34.1376 58.2062 33.6713 58.5792 33.2983C58.9523 32.9253 59.4186 32.7387 59.9781 32.7387H64.8462C65.4057 32.7387 65.872 32.5522 66.245 32.1792C66.6554 31.7689 66.8605 31.3026 66.8605 30.7803V27.0314C66.8605 26.4718 66.6554 26.0055 66.245 25.6325C65.872 25.2595 65.4057 25.0729 64.8462 25.0729H59.9781C59.4186 25.0729 58.9523 24.8864 58.5792 24.5134C58.2062 24.1404 58.0197 23.6927 58.0197 23.1705V22.3312C58.0197 21.8089 58.2062 21.3613 58.5792 20.9883C58.9523 20.6152 59.4186 20.4287 59.9781 20.4287H64.8462C65.4057 20.4287 65.872 20.3355 66.245 20.1489C66.6554 19.9251 66.8605 19.7013 66.8605 19.4775C66.8605 19.1791 66.6554 18.9366 66.245 18.7501C65.872 18.5262 65.4057 18.4143 64.8462 18.4143H59.9781C59.4186 18.4143 58.9523 18.2278 58.5792 17.8548C58.2062 17.4818 58.0197 17.0155 58.0197 16.4559V15.6726C58.0197 15.1503 58.2062 14.7027 58.5792 14.3296C58.9523 13.9566 59.4186 13.7701 59.9781 13.7701H64.8462C65.4057 13.7701 65.872 13.6768 66.245 13.4903C66.6554 13.2665 66.8605 13.024 66.8605 12.7629C66.8605 12.4645 66.6554 12.222 66.245 12.0355C65.872 11.849 65.4057 11.7557 64.8462 11.7557H59.9781C59.4186 11.7557 58.9523 11.5692 58.5792 11.1962C58.2062 10.8232 58.0197 10.3569 58.0197 9.79732V9.01395C58.0197 8.45441 58.2062 7.98812 58.5792 7.61509C58.9523 7.24205 59.4186 7.05554 59.9781 7.05554H78.8348C79.3944 7.05554 79.8607 7.24205 80.2337 7.61509C80.6067 7.98812 80.7933 8.45441 80.7933 9.01395V9.79732C80.7933 10.3569 80.6067 10.8232 80.2337 11.1962C79.8607 11.5692 79.3944 11.7557 78.8348 11.7557H73.9668C73.4072 11.7557 72.941 11.849 72.5679 12.0355C72.1949 12.222 72.0084 12.4645 72.0084 12.7629C72.0084 13.024 72.1949 13.2665 72.5679 13.4903C72.9783 13.6768 73.4445 13.7701 73.9668 13.7701H78.8348C79.3944 13.7701 79.8607 13.9566 80.2337 14.3296C80.6067 14.7027 80.7933 15.1503 80.7933 15.6726V16.4559C80.7933 17.0155 80.6067 17.4818 80.2337 17.8548C79.8607 18.2278 79.3944 18.4143 78.8348 18.4143H73.9668C73.4445 18.4143 72.9783 18.5262 72.5679 18.7501C72.1949 18.9366 72.0084 19.1791 72.0084 19.4775C72.0084 19.7013 72.1949 19.9251 72.5679 20.1489C72.9783 20.3355 73.4445 20.4287 73.9668 20.4287H78.8348C79.3944 20.4287 79.8607 20.6152 80.2337 20.9883C80.6067 21.3613 80.7933 21.8089 80.7933 22.3312V23.1705C80.7933 23.6927 80.6067 24.1404 80.2337 24.5134C79.8607 24.8864 79.3944 25.0729 78.8348 25.0729H73.9668C73.4445 25.0729 72.9783 25.2595 72.5679 25.6325C72.1949 26.0055 72.0084 26.4718 72.0084 27.0314V30.7803C72.0084 31.3026 72.1949 31.7689 72.5679 32.1792C72.9783 32.5522 73.4445 32.7387 73.9668 32.7387H78.8348C79.3944 32.7387 79.8607 32.9253 80.2337 33.2983C80.6067 33.6713 80.7933 34.1376 80.7933 34.6972V35.4805C80.7933 36.0401 80.6067 36.5064 80.2337 36.8794C79.8607 37.2524 79.3944 37.4389 78.8348 37.4389H59.9781C59.4186 37.4389 58.9523 37.2524 58.5792 36.8794C58.2062 36.5064 58.0197 36.0401 58.0197 35.4805V34.6972ZM49.9063 30.8922C50.4285 30.8922 50.8575 30.7057 51.1932 30.3327C51.529 29.9597 51.6968 29.512 51.6968 28.9898V23.2264C51.6968 22.6669 51.529 22.2006 51.1932 21.8276C50.8575 21.4545 50.4285 21.268 49.9063 21.268C49.4213 21.268 49.011 21.4545 48.6753 21.8276C48.3768 22.2006 48.2276 22.6669 48.2276 23.2264V28.9898C48.2276 29.512 48.3768 29.9597 48.6753 30.3327C49.011 30.7057 49.4213 30.8922 49.9063 30.8922ZM60.7055 25.9123C61.2278 25.9123 61.6941 26.0242 62.1044 26.248C62.4401 26.3972 62.6453 26.6583 62.7199 27.0314C62.8318 27.4044 62.9624 27.6469 63.1116 27.7588C63.41 27.9453 63.7457 28.0385 64.1188 28.0385C64.5291 28.0385 64.8835 28.2437 65.1819 28.654C65.4803 29.0271 65.6295 29.4747 65.6295 29.997V30.2208C65.6295 30.743 65.4244 31.2093 65.014 31.6196C64.641 31.9927 64.1934 32.1792 63.6711 32.1792H63.6152C63.0929 32.1792 62.4961 32.0486 61.8246 31.7875C61.1905 31.5264 60.6496 31.228 60.2019 30.8922L59.5305 30.3886C58.5606 29.4934 58.0757 28.5421 58.0757 27.535C58.0757 27.05 58.2249 26.6583 58.5233 26.3599C58.859 26.0615 59.344 25.9123 59.9781 25.9123H60.7055ZM74.6382 28.0385C75.0486 28.0385 75.403 27.9453 75.7014 27.7588C75.9998 27.535 76.149 27.2738 76.149 26.9754C76.149 26.677 76.3355 26.4345 76.7086 26.248C77.1189 26.0242 77.5852 25.9123 78.1074 25.9123H78.8348C79.469 25.9123 79.9353 26.0801 80.2337 26.4159C80.5694 26.7143 80.7373 27.1246 80.7373 27.6469C80.7373 28.0945 80.6067 28.5794 80.3456 29.1017C80.0845 29.5866 79.7301 30.0156 79.2825 30.3886L78.667 30.8922C78.2566 31.228 77.6971 31.5264 76.9883 31.7875C76.3169 32.0486 75.72 32.1792 75.1978 32.1792H75.1418C74.6196 32.1792 74.172 31.9927 73.7989 31.6196C73.4259 31.2093 73.2394 30.743 73.2394 30.2208V29.997C73.2394 29.4747 73.3699 29.0271 73.6311 28.654C73.9295 28.2437 74.2652 28.0385 74.6382 28.0385ZM58.0197 40.9081C58.0197 40.3486 58.2062 39.8823 58.5792 39.5093C58.9523 39.1362 59.4186 38.9497 59.9781 38.9497H78.8348C79.3944 38.9497 79.8607 39.1362 80.2337 39.5093C80.6067 39.8823 80.7933 40.3486 80.7933 40.9081V46.2798C80.7933 46.802 80.644 47.3616 80.3456 47.9584C80.0845 48.5926 79.7301 49.1148 79.2825 49.5251L78.1634 50.5883C77.7158 50.924 77.1562 51.2038 76.4847 51.4276C75.8133 51.6887 75.2164 51.8193 74.6942 51.8193H59.9781C59.4186 51.8193 58.9523 51.6141 58.5792 51.2038C58.2062 50.8308 58.0197 50.3831 58.0197 49.8609V40.9081ZM63.2235 45.4405C63.2235 45.9254 63.41 46.3171 63.783 46.6155C64.1561 46.9512 64.6037 47.1191 65.1259 47.1191H73.6311C74.1906 47.1191 74.6569 46.9512 75.0299 46.6155C75.403 46.3171 75.5895 45.9254 75.5895 45.4405C75.5895 44.9182 75.403 44.4892 75.0299 44.1535C74.6569 43.7805 74.1906 43.5939 73.6311 43.5939H65.1259C64.6037 43.5939 64.1561 43.7805 63.783 44.1535C63.41 44.4892 63.2235 44.9182 63.2235 45.4405ZM95.3043 6.32813C96.498 6.32813 97.3933 6.85037 97.9901 7.89486L104.425 19.0298C105.022 20.0743 105.432 20.5966 105.656 20.5966C105.917 20.5966 106.327 20.0743 106.887 19.0298L113.21 7.89486C113.769 6.85037 114.665 6.32813 115.896 6.32813H116.231C116.828 6.32813 117.295 6.47734 117.63 6.77577C118.003 7.03689 118.19 7.37262 118.19 7.78295C118.19 8.19328 118.059 8.60362 117.798 9.01395L108.957 24.4015C108.472 25.2595 108.23 26.192 108.23 27.1992V44.3214C108.23 45.8135 107.484 46.5595 105.992 46.5595H105.376C103.884 46.5595 103.138 45.8135 103.138 44.3214V27.1992C103.138 26.192 102.896 25.2595 102.411 24.4015L93.4578 9.01395C93.1967 8.60362 93.0661 8.17463 93.0661 7.727C93.0661 7.31666 93.234 6.98093 93.5697 6.71981C93.9055 6.45869 94.3717 6.32813 94.9686 6.32813H95.3043ZM142.57 40.7962C142.57 41.878 142.197 42.8106 141.451 43.5939L139.66 45.3845C138.914 46.1306 138 46.5036 136.918 46.5036H126.119C125.037 46.5036 124.123 46.1306 123.377 45.3845L121.531 43.538C120.785 42.7919 120.412 41.878 120.412 40.7962V11.9236C120.412 10.8418 120.785 9.90923 121.531 9.12586L123.321 7.33531C124.067 6.58925 124.981 6.21622 126.063 6.21622H136.918C138 6.21622 138.914 6.6079 139.66 7.39127L141.451 9.18182C142.197 9.92788 142.57 10.8418 142.57 11.9236V40.7962ZM135.24 41.4117C136.732 41.4117 137.478 40.6657 137.478 39.1735V13.5463C137.478 12.0542 136.732 11.3081 135.24 11.3081H127.742C126.25 11.3081 125.504 12.0542 125.504 13.5463V39.1735C125.504 40.6657 126.25 41.4117 127.742 41.4117H135.24ZM165.237 8.45441C165.237 6.96228 165.983 6.21622 167.475 6.21622H168.09C169.583 6.21622 170.329 6.96228 170.329 8.45441V40.7403C170.329 41.8221 169.956 42.7546 169.21 43.538L167.419 45.3285C166.673 46.0746 165.759 46.4476 164.677 46.4476H153.878C152.796 46.4476 151.882 46.0746 151.136 45.3285L149.29 43.482C148.544 42.736 148.171 41.8221 148.171 40.7403V8.45441C148.171 6.96228 148.917 6.21622 150.409 6.21622H151.024C152.516 6.21622 153.262 6.96228 153.262 8.45441V39.1176C153.262 40.6097 154.009 41.3558 155.501 41.3558H162.999C164.491 41.3558 165.237 40.6097 165.237 39.1176V8.45441ZM195.234 19.3656C193.742 19.3656 192.996 18.6195 192.996 17.1274V12.707C192.996 11.2148 192.249 10.4688 190.757 10.4688H183.259C181.767 10.4688 181.021 11.2148 181.021 12.707V21.6038C181.021 23.0959 181.767 23.8419 183.259 23.8419H192.436C193.518 23.8419 194.432 24.215 195.178 24.961L196.968 26.7516C197.714 27.4977 198.087 28.4116 198.087 29.4934V40.7962C198.087 41.878 197.714 42.8106 196.968 43.5939L195.178 45.3845C194.432 46.1306 193.518 46.5036 192.436 46.5036H181.637C180.555 46.5036 179.641 46.1306 178.895 45.3845L177.048 43.538C176.302 42.7919 175.929 41.878 175.929 40.7962V35.3127C175.929 33.8205 176.675 33.0745 178.168 33.0745H178.783C180.275 33.0745 181.021 33.8205 181.021 35.3127V39.1735C181.021 40.6657 181.767 41.4117 183.259 41.4117H190.757C192.249 41.4117 192.996 40.6657 192.996 39.1735V31.1161C192.996 29.6239 192.249 28.8779 190.757 28.8779H181.637C180.518 28.8779 179.585 28.5048 178.839 27.7588L177.048 25.9682C176.302 25.2222 175.929 24.3082 175.929 23.2264V11.0843C175.929 10.0025 176.302 9.06991 177.048 8.28654L178.839 6.49599C179.585 5.74993 180.499 5.3769 181.581 5.3769H192.436C193.518 5.3769 194.432 5.76858 195.178 6.55195L196.968 8.3425C197.714 9.08856 198.087 10.0025 198.087 11.0843V17.1274C198.087 18.6195 197.341 19.3656 195.849 19.3656H195.234ZM220.754 8.45441C220.754 6.96228 221.5 6.21622 222.992 6.21622H223.608C225.1 6.21622 225.846 6.96228 225.846 8.45441V44.2654C225.846 45.7575 225.1 46.5036 223.608 46.5036H222.992C221.5 46.5036 220.754 45.7575 220.754 44.2654V29.6612C220.754 28.1691 220.008 27.423 218.516 27.423H211.018C209.526 27.423 208.78 28.1691 208.78 29.6612V44.2654C208.78 45.7575 208.034 46.5036 206.542 46.5036H205.926C204.434 46.5036 203.688 45.7575 203.688 44.2654V8.45441C203.688 6.96228 204.434 6.21622 205.926 6.21622H206.542C208.034 6.21622 208.78 6.96228 208.78 8.45441V20.093C208.78 21.5851 209.526 22.3312 211.018 22.3312H218.516C220.008 22.3312 220.754 21.5851 220.754 20.093V8.45441ZM253.941 46.5036C252.635 46.5036 251.833 45.8321 251.535 44.4892L250.136 37.7747C249.837 36.4317 249.035 35.7603 247.73 35.7603H239.281C237.975 35.7603 237.173 36.4317 236.874 37.7747L235.476 44.4892C235.177 45.8321 234.375 46.5036 233.07 46.5036H232.398C231.727 46.5036 231.204 46.3357 230.831 46C230.496 45.6643 230.328 45.2166 230.328 44.6571C230.328 44.396 230.346 44.1908 230.384 44.0416L237.49 8.3425C237.788 6.99958 238.59 6.32813 239.896 6.32813H246.946C248.252 6.32813 249.054 6.99958 249.352 8.3425L256.626 44.0416C256.664 44.1908 256.682 44.4146 256.682 44.713C256.682 45.9067 255.992 46.5036 254.612 46.5036H253.941ZM243.421 11.42C242.601 11.42 242.041 12.0915 241.743 13.4344L238.777 28.2624C238.74 28.4116 238.721 28.6167 238.721 28.8779C238.721 29.4374 238.889 29.8851 239.225 30.2208C239.598 30.5565 240.12 30.7244 240.791 30.7244H246.163C247.543 30.7244 248.233 30.1275 248.233 28.9338C248.233 28.6354 248.215 28.4116 248.177 28.2624L245.1 13.4344C244.801 12.0915 244.242 11.42 243.421 11.42ZM266.265 44.2654C266.265 45.7575 265.519 46.5036 264.026 46.5036H263.411C261.919 46.5036 261.173 45.7575 261.173 44.2654V8.51036C261.173 7.01824 261.919 6.27217 263.411 6.27217H264.53C265.761 6.27217 266.619 6.83172 267.104 7.95082L276.113 28.71C276.299 29.1203 276.523 29.4561 276.784 29.7172C277.083 29.941 277.362 30.0529 277.623 30.0529C277.959 30.0529 278.22 29.9037 278.407 29.6053C278.631 29.2695 278.743 28.8033 278.743 28.2064V8.51036C278.743 7.01824 279.489 6.27217 280.981 6.27217H281.596C283.088 6.27217 283.834 7.01824 283.834 8.51036V44.2654C283.834 45.7575 283.088 46.5036 281.596 46.5036H280.981C279.75 46.5036 278.892 45.944 278.407 44.825L268.895 23.0586C268.522 22.1633 268.037 21.7157 267.44 21.7157C267.104 21.7157 266.824 21.8835 266.6 22.2193C266.377 22.555 266.265 23.0213 266.265 23.6181V44.2654Z" fill="#FDC767"/>
</svg>
