<svg width="27" height="30" viewBox="0 0 27 30" fill="none" xmlns="http://www.w3.org/2000/svg">
<path d="M18.3933 22.7344C17.692 22.7344 16.916 22.5645 16.0627 22.377C14.9515 22.1338 13.6934 21.8584 12.2883 21.8789C11.6437 21.8877 10.9064 21.9609 10.1948 22.0312C8.9264 22.1572 7.61414 22.2891 6.5571 22.0898C4.78078 21.7559 4.29351 20.5576 4.19812 19.6084C4.14398 19.0781 4.07695 18.2812 4.09757 17.458C4.11046 17.0039 4.44304 16.6494 4.84265 16.6641C5.24226 16.6787 5.55421 17.0566 5.54132 17.5107C5.5207 18.2285 5.58257 18.9463 5.63156 19.4238C5.67281 19.834 5.79913 20.2881 6.79171 20.4727C7.66828 20.6367 8.88773 20.5166 10.0659 20.3965C10.8059 20.3232 11.569 20.2471 12.2702 20.2383C13.8223 20.2178 15.2144 20.5225 16.3334 20.7656C17.4316 21.0059 18.3804 21.2139 18.9862 21.0117C19.2234 20.9326 19.7777 20.748 20.0871 19.002C20.0948 18.9521 20.1026 18.9023 20.1052 18.8496C20.1129 18.7412 20.1361 18.6357 20.1799 18.5391C20.3114 18.2402 20.4197 17.8623 20.4996 17.4082C20.5795 16.9629 20.9585 16.6758 21.3504 16.7666C21.7423 16.8574 21.9949 17.2881 21.915 17.7334C21.8196 18.2725 21.6933 18.7324 21.5309 19.1338C21.5231 19.1982 21.5128 19.2656 21.5025 19.3271C21.3401 20.2471 21.0951 20.9502 20.7574 21.4834C20.4094 22.0312 19.9505 22.4004 19.3936 22.5879C19.0791 22.6904 18.7465 22.7344 18.3933 22.7344ZM12.6802 11.584C12.6492 11.584 12.6209 11.5811 12.5899 11.5781C12.1852 11.5195 11.7855 11.4902 11.4066 11.4902C11.0069 11.4902 10.6847 11.124 10.6847 10.6699C10.6847 10.2158 11.0069 9.84961 11.4066 9.84961C11.8448 9.84961 12.3037 9.88184 12.7704 9.94922C13.1648 10.0049 13.4459 10.415 13.3969 10.8662C13.3505 11.2793 13.0411 11.584 12.6802 11.584Z" fill="#999999"/>
<path d="M18.9783 20.9209C18.1894 20.9209 17.3051 20.6807 16.346 20.417C15.124 20.0831 13.7396 19.7081 12.2468 19.7256C11.5559 19.7344 10.7618 19.8282 9.99097 19.919C8.74574 20.0655 7.45925 20.2178 6.428 20.042C4.68003 19.7432 4.2005 18.5626 4.10769 17.6251C3.96074 16.1631 4.33199 14.5694 5.1312 13.251C6.01808 11.7862 7.34066 10.7374 8.95714 10.2188C9.34128 10.0958 9.74089 10.3477 9.84917 10.7842C9.95745 11.2208 9.73574 11.6749 9.3516 11.7979C6.59816 12.6827 5.33488 15.3663 5.5437 17.4405C5.58238 17.8301 5.70355 18.2608 6.64456 18.4219C7.49535 18.5684 8.68902 18.4278 9.84402 18.2901C10.6458 18.1963 11.476 18.0967 12.2314 18.0879C13.902 18.0674 15.3793 18.4688 16.6838 18.8233C18.0193 19.1866 19.1743 19.503 19.7646 19.0723C20.105 18.8262 20.3473 18.2813 20.502 17.4083C20.6103 16.8047 20.2261 15.9668 19.4527 15.1114C18.5968 14.1651 17.3464 13.2774 15.9361 12.6094C15.6835 12.4893 15.4257 12.378 15.1678 12.2754C14.7914 12.126 14.5929 11.6573 14.7244 11.2295C14.8559 10.8018 15.2684 10.5762 15.6448 10.7256C15.9284 10.837 16.212 10.9629 16.4904 11.0918C18.0657 11.836 19.4733 12.8438 20.4582 13.9307C21.6235 15.2168 22.1288 16.5323 21.9148 17.7276C21.6776 19.0606 21.229 19.9512 20.5407 20.4522C20.074 20.795 19.5507 20.9209 18.9783 20.9209Z" fill="#FDC767"/>
<path d="M10.1822 12.0439C7.88507 12.7412 6.82546 15.0087 7.00851 16.8281C7.21991 18.9169 10.2905 17.8652 12.4432 17.8359C15.8618 17.7919 18.3935 20.3818 19.02 16.8544C19.2675 15.454 17.5427 13.6933 15.3565 12.6621C15.1631 12.5712 14.9646 12.4833 14.7635 12.4042C14.7661 12.4072 12.0565 11.4755 10.1822 12.0439Z" fill="#999999"/>
<path d="M9.64331 16.5527C9.49635 16.5527 9.35198 16.4824 9.24885 16.3447C9.06581 16.0986 9.09159 15.7295 9.30815 15.5186L11.2495 13.6494C11.466 13.4414 11.7909 13.4707 11.9765 13.7168C12.1596 13.9629 12.1338 14.332 11.9172 14.543L9.97588 16.4121C9.88049 16.5059 9.7619 16.5527 9.64331 16.5527ZM13.0103 17.0186C12.8685 17.0186 12.7267 16.9512 12.6262 16.8223C12.438 16.582 12.456 16.21 12.6674 15.9961L14.5598 14.0801C14.7712 13.8662 15.0986 13.8867 15.2868 14.127C15.475 14.3672 15.457 14.7393 15.2456 14.9531L13.3532 16.8721C13.2553 16.9717 13.1341 17.0186 13.0103 17.0186ZM22.2555 4.6875C22.5649 4.6875 22.8149 4.97168 22.8149 5.32324C22.8149 5.6748 22.5649 5.95898 22.2555 5.95898C21.9461 5.95898 21.696 5.6748 21.696 5.32324C21.696 4.97168 21.9461 4.6875 22.2555 4.6875ZM22.2555 3.51562C21.3789 3.51562 20.6648 4.32715 20.6648 5.32324C20.6648 6.31934 21.3789 7.13086 22.2555 7.13086C23.1321 7.13086 23.8462 6.31934 23.8462 5.32324C23.8462 4.32715 23.1321 3.51562 22.2555 3.51562ZM19.9146 26.54H19.9094L18.1176 26.5107C17.9036 26.5078 17.7335 26.3086 17.736 26.0654C17.7386 25.8252 17.9114 25.6318 18.1228 25.6318H18.1279L19.9197 25.6611C20.1337 25.6641 20.3039 25.8633 20.3013 26.1064C20.2987 26.3467 20.126 26.54 19.9146 26.54Z" fill="#FDC767"/>
<path d="M19.0059 27.3984H19.0007C18.7867 27.3955 18.6166 27.1963 18.6192 26.9531L18.645 24.917C18.6475 24.6768 18.8203 24.4834 19.0317 24.4834H19.0368C19.2508 24.4863 19.421 24.6855 19.4184 24.9287L19.3926 26.9648C19.39 27.208 19.2173 27.3984 19.0059 27.3984Z" fill="#FDC767"/>
<path d="M4.99023 25.0488C4.99023 25.2889 5.07417 25.5192 5.22357 25.689C5.37296 25.8587 5.57559 25.9541 5.78688 25.9541C5.99816 25.9541 6.20079 25.8587 6.35018 25.689C6.49958 25.5192 6.58352 25.2889 6.58352 25.0488C6.58352 24.8087 6.49958 24.5785 6.35018 24.4087C6.20079 24.2389 5.99816 24.1436 5.78688 24.1436C5.57559 24.1436 5.37296 24.2389 5.22357 24.4087C5.07417 24.5785 4.99023 24.8087 4.99023 25.0488Z" fill="#FDC767"/>
<path d="M11.4648 5.06543C11.4648 5.22627 11.5211 5.38052 11.6212 5.49425C11.7212 5.60798 11.857 5.67188 11.9985 5.67188C12.1401 5.67188 12.2758 5.60798 12.3759 5.49425C12.476 5.38052 12.5322 5.22627 12.5322 5.06543C12.5322 4.90459 12.476 4.75034 12.3759 4.63661C12.2758 4.52288 12.1401 4.45898 11.9985 4.45898C11.857 4.45898 11.7212 4.52288 11.6212 4.63661C11.5211 4.75034 11.4648 4.90459 11.4648 5.06543Z" fill="#FDC767"/>
<path d="M3.875 3.87012V4.77246V3.87012ZM3.875 5.06543C3.7332 5.06543 3.61719 4.93359 3.61719 4.77246V3.87012C3.61719 3.70898 3.7332 3.57715 3.875 3.57715C4.0168 3.57715 4.13281 3.70898 4.13281 3.87012V4.77246C4.13281 4.93359 4.0168 5.06543 3.875 5.06543ZM3.875 6.29004V7.19238V6.29004ZM3.875 7.48535C3.7332 7.48535 3.61719 7.35352 3.61719 7.19238V6.29004C3.61719 6.12891 3.7332 5.99707 3.875 5.99707C4.0168 5.99707 4.13281 6.12891 4.13281 6.29004V7.19238C4.13281 7.35352 4.0168 7.48535 3.875 7.48535Z" fill="#FDC767"/>
<path d="M2.41211 5.53125H3.20617H2.41211ZM3.20617 5.82422H2.41211C2.27031 5.82422 2.1543 5.69238 2.1543 5.53125C2.1543 5.37012 2.27031 5.23828 2.41211 5.23828H3.20617C3.34797 5.23828 3.46398 5.37012 3.46398 5.53125C3.46398 5.69238 3.34797 5.82422 3.20617 5.82422Z" fill="#FDC767"/>
<path d="M4.54297 5.53125H5.33703H4.54297ZM5.33703 5.82422H4.54297C4.40117 5.82422 4.28516 5.69238 4.28516 5.53125C4.28516 5.37012 4.40117 5.23828 4.54297 5.23828H5.33703C5.47883 5.23828 5.59484 5.37012 5.59484 5.53125C5.59484 5.69238 5.47883 5.82422 5.33703 5.82422Z" fill="#FDC767"/>
<path d="M2.84049 6.70605L3.40252 6.06738L2.84049 6.70605ZM2.84049 6.99902C2.77346 6.99902 2.709 6.96973 2.65744 6.91406C2.55689 6.7998 2.55689 6.61523 2.65744 6.50098L3.21947 5.8623C3.32002 5.74805 3.48244 5.74805 3.58299 5.8623C3.68354 5.97656 3.68354 6.16113 3.58299 6.27539L3.02096 6.91406C2.97197 6.96973 2.90752 6.99902 2.84049 6.99902Z" fill="#FDC767"/>
<path d="M4.34635 4.99512L4.90838 4.35645L4.34635 4.99512ZM4.34635 5.28809C4.27932 5.28809 4.21486 5.25879 4.1633 5.20312C4.06275 5.08887 4.06275 4.9043 4.1633 4.79004L4.72533 4.15137C4.82588 4.03711 4.9883 4.03711 5.08885 4.15137C5.18939 4.26562 5.18939 4.4502 5.08885 4.56445L4.52682 5.20312C4.47783 5.25879 4.41338 5.28809 4.34635 5.28809Z" fill="#FDC767"/>
<path d="M4.90838 6.70605L4.34635 6.06738L4.90838 6.70605ZM4.90838 6.99902C4.84135 6.99902 4.77689 6.96973 4.72533 6.91406L4.1633 6.27539C4.06275 6.16113 4.06275 5.97656 4.1633 5.8623C4.26385 5.74805 4.42627 5.74805 4.52682 5.8623L5.08885 6.50098C5.18939 6.61523 5.18939 6.7998 5.08885 6.91406C5.03986 6.96973 4.97283 6.99902 4.90838 6.99902Z" fill="#FDC767"/>
<path d="M3.40252 4.99512L2.84049 4.35645L3.40252 4.99512ZM3.40252 5.28809C3.33549 5.28809 3.27104 5.25879 3.21947 5.20312L2.65744 4.56445C2.55689 4.4502 2.55689 4.26562 2.65744 4.15137C2.75799 4.03711 2.92041 4.03711 3.02096 4.15137L3.58299 4.79004C3.68354 4.9043 3.68354 5.08887 3.58299 5.20312C3.534 5.25879 3.46697 5.28809 3.40252 5.28809Z" fill="#FDC767"/>
</svg>
