<svg width="27" height="30" viewBox="0 0 27 30" fill="none" xmlns="http://www.w3.org/2000/svg">
<path d="M15.6947 9.86719H16.4552C16.6615 9.86719 16.8291 10.0693 16.8291 10.3213V20.5928C16.8291 20.8418 16.6615 21.0469 16.4552 21.0469H9.11016C8.90391 21.0469 8.73633 20.8447 8.73633 20.5928V10.3213C8.73633 10.0723 8.90391 9.86719 9.11016 9.86719H9.91195" fill="#999999"/>
<path d="M17.6962 23.6074H7.87094C7.04594 23.6074 6.37305 22.8428 6.37305 21.9053V8.92676C6.37305 7.98926 7.04594 7.22461 7.87094 7.22461H8.7475C9.14711 7.22461 9.46937 7.59082 9.46937 8.04492C9.46937 8.49902 9.14711 8.86523 8.7475 8.86523H7.87094C7.84 8.86523 7.8168 8.8916 7.8168 8.92676V21.9053C7.8168 21.9404 7.84 21.9668 7.87094 21.9668H17.6962C17.7271 21.9668 17.7503 21.9404 17.7503 21.9053V8.92676C17.7503 8.8916 17.7271 8.86523 17.6962 8.86523H16.8763C16.4767 8.86523 16.1545 8.49902 16.1545 8.04492C16.1545 7.59082 16.4767 7.22461 16.8763 7.22461H17.6962C18.5212 7.22461 19.1941 7.98926 19.1941 8.92676V21.9053C19.1941 22.8457 18.5238 23.6074 17.6962 23.6074Z" fill="#999999"/>
<path d="M14.1364 8.86523H11.0684C10.6688 8.86523 10.3466 8.49902 10.3466 8.04492C10.3466 7.59082 10.6688 7.22461 11.0684 7.22461H14.1364C14.536 7.22461 14.8583 7.59082 14.8583 8.04492C14.8583 8.49902 14.536 8.86523 14.1364 8.86523ZM12.8628 19.2334H10.4007C10.0011 19.2334 9.67883 18.8672 9.67883 18.4131C9.67883 17.959 10.0011 17.5928 10.4007 17.5928H12.8628C13.2624 17.5928 13.5847 17.959 13.5847 18.4131C13.5847 18.8672 13.2624 19.2334 12.8628 19.2334ZM15.1677 16.1397H10.4007C10.0011 16.1397 9.67883 15.7734 9.67883 15.3193C9.67883 14.8652 10.0011 14.499 10.4007 14.499H15.1677C15.5673 14.499 15.8895 14.8652 15.8895 15.3193C15.8895 15.7734 15.5673 16.1397 15.1677 16.1397ZM15.1677 12.9961H10.4007C10.0011 12.9961 9.67883 12.6299 9.67883 12.1758C9.67883 11.7217 10.0011 11.3555 10.4007 11.3555H15.1677C15.5673 11.3555 15.8895 11.7217 15.8895 12.1758C15.8895 12.6299 15.5673 12.9961 15.1677 12.9961ZM3.90125 3.6416C4.21063 3.6416 4.4607 3.92578 4.4607 4.27734C4.4607 4.62891 4.21063 4.91309 3.90125 4.91309C3.59188 4.91309 3.3418 4.62891 3.3418 4.27734C3.3418 3.92578 3.59445 3.6416 3.90125 3.6416ZM3.90125 2.46973C3.02469 2.46973 2.31055 3.28125 2.31055 4.27734C2.31055 5.27344 3.02469 6.08496 3.90125 6.08496C4.77781 6.08496 5.49195 5.27344 5.49195 4.27734C5.49195 3.28125 4.78039 2.46973 3.90125 2.46973ZM21.5227 5.47559H21.5176C21.3036 5.47266 21.1334 5.27344 21.136 5.03027L21.1618 2.99414C21.1644 2.75391 21.3371 2.56055 21.5485 2.56055H21.5537C21.7677 2.56348 21.9378 2.7627 21.9352 3.00586L21.9095 5.04199C21.9069 5.28223 21.7341 5.47559 21.5227 5.47559Z" fill="#FDC767"/>
<path d="M22.8191 4.03128V4.03714C22.8166 4.28031 22.6413 4.47367 22.4273 4.47074L20.6355 4.44144C20.4241 4.43851 20.2539 4.24222 20.2539 4.00199V3.99613C20.2565 3.75296 20.4318 3.5596 20.6458 3.56253L22.4376 3.59183C22.649 3.59476 22.8191 3.79105 22.8191 4.03128Z" fill="#FDC767"/>
<path d="M21.5723 14.168C21.5723 14.4081 21.6562 14.6383 21.8056 14.8081C21.955 14.9779 22.1576 15.0732 22.3689 15.0732C22.5802 15.0732 22.7828 14.9779 22.9322 14.8081C23.0816 14.6383 23.1655 14.4081 23.1655 14.168C23.1655 13.9279 23.0816 13.6976 22.9322 13.5278C22.7828 13.3581 22.5802 13.2627 22.3689 13.2627C22.1576 13.2627 21.955 13.3581 21.8056 13.5278C21.6562 13.6976 21.5723 13.9279 21.5723 14.168Z" fill="#FDC767"/>
<path d="M22.375 26.3115C22.375 26.4724 22.4312 26.6266 22.5313 26.7403C22.6314 26.8541 22.7671 26.918 22.9087 26.918C23.0502 26.918 23.186 26.8541 23.286 26.7403C23.3861 26.6266 23.4423 26.4724 23.4423 26.3115C23.4423 26.1507 23.3861 25.9964 23.286 25.8827C23.186 25.769 23.0502 25.7051 22.9087 25.7051C22.7671 25.7051 22.6314 25.769 22.5313 25.8827C22.4312 25.9964 22.375 26.1507 22.375 26.3115Z" fill="#FDC767"/>
<path d="M3.18578 24.5391V25.4414V24.5391ZM3.18578 25.7344C3.04398 25.7344 2.92797 25.6025 2.92797 25.4414V24.5391C2.92797 24.3779 3.04398 24.2461 3.18578 24.2461C3.32758 24.2461 3.44359 24.3779 3.44359 24.5391V25.4414C3.44359 25.6025 3.33016 25.7344 3.18578 25.7344ZM3.18578 26.959V27.8584V26.959ZM3.18578 28.1514C3.04398 28.1514 2.92797 28.0195 2.92797 27.8584V26.9561C2.92797 26.7949 3.04398 26.6631 3.18578 26.6631C3.32758 26.6631 3.44359 26.7949 3.44359 26.9561V27.8584C3.44359 28.0225 3.33016 28.1514 3.18578 28.1514ZM1.72656 26.2002H2.51805H1.72656ZM2.51805 26.4932H1.72656C1.58477 26.4932 1.46875 26.3613 1.46875 26.2002C1.46875 26.0391 1.58477 25.9072 1.72656 25.9072H2.52063C2.66242 25.9072 2.77844 26.0391 2.77844 26.2002C2.77844 26.3613 2.66242 26.4932 2.51805 26.4932ZM3.85352 26.2002H4.64758H3.85352ZM4.64758 26.4932H3.85352C3.71172 26.4932 3.5957 26.3613 3.5957 26.2002C3.5957 26.0391 3.71172 25.9072 3.85352 25.9072H4.64758C4.78938 25.9072 4.90539 26.0391 4.90539 26.2002C4.90539 26.3613 4.78938 26.4932 4.64758 26.4932Z" fill="#FDC767"/>
<path d="M2.15494 27.3721L2.71439 26.7363L2.15494 27.3721ZM2.15494 27.665C2.08791 27.665 2.02346 27.6357 1.97189 27.5801C1.87135 27.4658 1.87135 27.2812 1.97189 27.167L2.53393 26.5283C2.63447 26.4141 2.79689 26.4141 2.89744 26.5283C2.99799 26.6426 2.99799 26.8271 2.89744 26.9414L2.33541 27.5801C2.28643 27.6387 2.21939 27.665 2.15494 27.665Z" fill="#FDC767"/>
<path d="M3.6608 25.6641L4.22025 25.0254L3.6608 25.6641ZM3.6608 25.957C3.59377 25.957 3.52932 25.9277 3.47775 25.8721C3.37721 25.7578 3.37721 25.5732 3.47775 25.459L4.03979 24.8203C4.14033 24.7061 4.30275 24.7061 4.4033 24.8203C4.50385 24.9346 4.50385 25.1191 4.4033 25.2334L3.84127 25.8691C3.79229 25.9277 3.72525 25.957 3.6608 25.957Z" fill="#FDC767"/>
<path d="M4.22088 27.3721L3.66143 26.7363L4.22088 27.3721ZM4.22088 27.665C4.15385 27.665 4.08939 27.6357 4.03783 27.5801L3.4758 26.9414C3.37525 26.8271 3.37525 26.6426 3.4758 26.5283C3.57635 26.4141 3.73877 26.4141 3.83932 26.5283L4.40135 27.167C4.50189 27.2812 4.50189 27.4658 4.40135 27.5801C4.35236 27.6387 4.28791 27.665 4.22088 27.665Z" fill="#FDC767"/>
<path d="M2.71502 25.6641L2.15557 25.0254L2.71502 25.6641ZM2.71502 25.957C2.64799 25.957 2.58353 25.9277 2.53197 25.8721L1.96994 25.2334C1.86939 25.1191 1.86939 24.9346 1.96994 24.8203C2.07049 24.7061 2.23291 24.7061 2.33346 24.8203L2.89549 25.459C2.99603 25.5732 2.99603 25.7578 2.89549 25.8721C2.84908 25.9277 2.78205 25.957 2.71502 25.957Z" fill="#FDC767"/>
</svg>
